<?xml version="1.0" standalone="no"?>
<!DOCTYPE svg PUBLIC "-//W3C//DTD SVG 1.1//EN" "http://www.w3.org/Graphics/SVG/1.1/DTD/svg11.dtd" >
<!--
2013-9-30: Created.
-->
<svg>
<metadata>
Created by iconfont
</metadata>
<defs>

<font id="super-app-iconfont" horiz-adv-x="1024" >
  <font-face
    font-family="super-app-iconfont"
    font-weight="500"
    font-stretch="normal"
    units-per-em="1024"
    ascent="896"
    descent="-128"
  />
    <missing-glyph />
    
    <glyph glyph-name="icon_gonggao_hei" unicode="&#58940;" d="M553.658182 816.267636a83.781818 83.781818 0 0 0 27.042909-24.715636l4.002909-6.283636 129.815273-121.949091L884.363636 663.272727a46.545455 46.545455 0 0 0 46.545455-46.545454v-605.090909a46.545455 46.545455 0 0 0-46.545455-46.545455H139.636364a46.545455 46.545455 0 0 0-46.545455 46.545455V616.727273a46.545455 46.545455 0 0 0 46.545455 46.545454l169.797818 0.046546 129.861818 121.949091a83.781818 83.781818 0 0 0 114.362182 30.999272zM856.436364 588.8H167.563636v-549.236364h688.872728V588.8z m-350.626909 161.745455l-1.861819-2.327273-90.437818-84.898909h196.933818l-90.344727 84.898909a9.309091 9.309091 0 0 1-14.289454 2.327273z"  horiz-adv-x="1024" />

    
    <glyph glyph-name="icon_gonggao_lan" unicode="&#58941;" d="M665.460364 249.762909a37.236364 37.236364 0 0 0 4.654545-74.193454l-4.654545-0.279273H285.509818a37.236364 37.236364 0 0 0-4.654545 74.193454l4.654545 0.279273h379.950546z m-189.952 178.129455a37.236364 37.236364 0 0 0 4.654545-74.193455l-4.654545-0.279273H285.509818a37.236364 37.236364 0 0 0-4.654545 74.193455l4.654545 0.279273h189.998546z"  horiz-adv-x="1024" />

    
    <glyph glyph-name="-recharge-in" unicode="&#58946;" d="M650.24 179.20000000000005h-102.4v51.2h102.4c20.48 0 30.72 15.36 30.72 35.84s-15.36 35.84-30.72 35.84h-71.68l66.56 66.56c10.24 15.36 10.24 35.84 0 46.08-5.12 5.12-15.36 10.24-25.6 10.24s-15.36-5.12-25.6-10.24L512 322.55999999999995 430.08 409.6c-5.12 10.24-15.36 10.24-25.6 10.24s-15.36-5.12-25.6-10.24c-10.24-15.36-10.24-35.84 0-46.08l66.56-66.56H378.88c-20.48 0-30.72-15.36-30.72-35.84-5.12-15.36 10.24-30.72 30.72-30.72h102.4v-51.2h-102.4c-20.48 0-30.72-15.36-30.72-35.84s15.36-35.84 30.72-35.84h102.4v-56.32c0-20.48 15.36-35.84 30.72-35.84 20.48 0 30.72 15.36 30.72 35.84v56.32h102.4c20.48 0 30.72 15.36 30.72 35.84 10.24 20.48-5.12 35.84-25.6 35.84z"  horiz-adv-x="1024" />

    
    <glyph glyph-name="-tenant-light" unicode="&#59424;" d="M279.272727 593.454545m34.909091 0l116.363637 0q34.909091 0 34.90909-34.90909l0 0q0-34.909091-34.90909-34.909091l-116.363637 0q-34.909091 0-34.909091 34.909091l0 0q0 34.909091 34.909091 34.90909ZM279.272727 453.818182m34.909091 0l116.363637 0q34.909091 0 34.90909-34.909091l0 0q0-34.909091-34.90909-34.909091l-116.363637 0q-34.909091 0-34.909091 34.909091l0 0q0 34.909091 34.909091 34.909091ZM279.272727 314.181818m34.909091 0l116.363637 0q34.909091 0 34.90909-34.909091l0 0q0-34.909091-34.90909-34.909091l-116.363637 0q-34.909091 0-34.909091 34.909091l0 0q0 34.909091 34.909091 34.909091Z"  horiz-adv-x="1024" />

    
    <glyph glyph-name="-recharge" unicode="&#58933;" d="M706.56-122.88H312.32C163.84-122.88 40.96 25.600000000000023 40.96 148.48000000000002c0 138.24 117.76 307.2 215.04 409.6 5.12 5.12 10.24 5.12 10.24 10.24-35.84 40.96-71.68 97.28-71.68 143.36 0 35.84 10.24 66.56 30.72 87.04 30.72 30.72 76.8 30.72 112.64 30.72H358.4c10.24 0 25.6 15.36 35.84 25.6C419.84 875.52 460.8 911.36 501.76 875.52c25.6-20.48 40.96-40.96 51.2-56.32 15.36 35.84 40.96 66.56 117.76 66.56 66.56 0 112.64-15.36 143.36-51.2 25.6-30.72 35.84-71.68 25.6-122.88-10.24-51.2-40.96-102.4-71.68-143.36l20.48-20.48c112.64-128 189.44-286.72 189.44-409.6-5.12-112.64-122.88-261.12-271.36-261.12zM353.28 522.24c-15.36 0-30.72-5.12-40.96-15.36-117.76-122.88-194.56-271.36-194.56-358.4 0-87.04 92.16-194.56 194.56-194.56h394.24c102.4 0 194.56 107.52 194.56 194.56 0 102.4-66.56 250.88-168.96 358.4-10.24 10.24-25.6 15.36-40.96 15.36H353.28z m-25.6 230.4c-20.48 0-35.84 0-46.08-10.24 0-5.12-5.12-20.48-5.12-30.72 0-15.36 15.36-56.32 61.44-107.52 5.12-10.24 15.36-15.36 30.72-15.36h317.44c10.24 0 20.48 5.12 25.6 10.24 35.84 40.96 56.32 81.92 61.44 112.64 5.12 30.72 0 51.2-10.24 66.56s-40.96 20.48-87.04 20.48c-40.96 0-46.08-10.24-51.2-25.6-5.12-15.36-20.48-46.08-56.32-51.2-40.96-5.12-61.44 25.6-71.68 40.96-5.12 20.48-15.36 35.84-30.72 46.08-5.12-5.12-15.36-10.24-20.48-15.36-20.48-15.36-46.08-40.96-81.92-40.96h-35.84z"  horiz-adv-x="1024" />

    
    <glyph glyph-name="-buy-cart-in" unicode="&#58945;" d="M424.96 312.32000000000005h409.6c20.48 0 40.96-15.36 40.96-40.96s-15.36-40.96-40.96-40.96h-409.6c-20.48 0-40.96 15.36-40.96 40.96s20.48 40.96 40.96 40.96z"  horiz-adv-x="1024" />

    
    <glyph glyph-name="contract-apply-in" unicode="&#59421;" d="M665.972364 314.181818c17.780364 0 32.209455-15.639273 32.209454-34.909091s-14.429091-34.909091-32.209454-34.909091H358.027636C340.247273 244.36363600000004 325.818182 260.00290900000005 325.818182 279.27272700000003s14.429091 34.909091 32.209454 34.909091h307.944728zM512 372.36363600000004a151.272727 151.272727 0 1 0 0 302.545455 151.272727 151.272727 0 0 0 0-302.545455z m0 69.818182a81.454545 81.454545 0 1 1 0 162.909091 81.454545 81.454545 0 0 1 0-162.909091z"  horiz-adv-x="1024" />

    
    <glyph glyph-name="fuxuankuang-banxuanzhong" unicode="&#58943;" d="M204.8 896h614.4c112.64 0 204.8-92.16 204.8-204.8v-614.4c0-112.64-92.16-204.8-204.8-204.8H204.8c-112.64 0-204.8 92.16-204.8 204.8V691.2C0 803.84 92.16 896 204.8 896z"  horiz-adv-x="1024" />

    
    <glyph glyph-name="fuxuankuang-xuanzhong" unicode="&#58944;" d="M993.28 721.92c-30.72 30.72-92.16 30.72-122.88 0L368.64 230.4 153.6 445.44c-30.72 30.72-92.16 30.72-122.88 0-20.48-20.48-30.72-40.96-30.72-61.44 0-20.48 10.24-40.96 30.72-61.44L307.2 46.08c20.48-20.48 40.96-20.48 61.44-20.48s40.96 10.24 61.44 20.48l563.2 552.96c40.96 30.72 40.96 92.16 0 122.88z"  horiz-adv-x="1024" />

    
    <glyph glyph-name="-tenant" unicode="&#59422;" d="M907.636364-11.636363999999958h34.909091a34.909091 34.909091 0 1 0 0-69.818181H81.454545a34.909091 34.909091 0 1 0 0 69.818181h34.909091V744.727273A104.727273 104.727273 0 0 0 221.090909 849.454545h302.545455a104.727273 104.727273 0 0 0 104.727272-104.727272v-61.905455l233.937455-161.093818c28.392727-19.549091 45.335273-51.805091 45.335273-86.248727V-11.636363999999958z m-69.818182 0V435.479273a34.909091 34.909091 0 0 1-15.127273 28.765091L635.019636 593.454545v-605.090909H837.818182z m-651.636364 0h372.363637V744.727273a34.909091 34.909091 0 0 1-34.909091 34.909091h-302.545455a34.909091 34.909091 0 0 1-34.909091-34.909091V-11.636363999999958z"  horiz-adv-x="1024" />

    
    <glyph glyph-name="contract-apply" unicode="&#59423;" d="M852.619636 19.22327299999995l-329.774545 153.506909a35.095273 35.095273 0 0 1-29.649455 0L163.374545 19.22327299999995V661.876364a105.658182 105.658182 0 0 0 105.472 105.472h478.254546a105.658182 105.658182 0 0 0 105.472-105.472v-642.699637zM747.147636 837.725091H268.893091A176.034909 176.034909 0 0 1 93.090909 661.922909v-697.856a35.188364 35.188364 0 0 1 49.989818-31.883636l364.916364 169.890909 364.916364-169.890909a35.234909 35.234909 0 0 1 50.036363 31.883636V661.876364a176.034909 176.034909 0 0 1-175.802182 175.802181z"  horiz-adv-x="1024" />

    
    <glyph glyph-name="-buy-cart" unicode="&#58942;" d="M824.32-46.08000000000004H204.8c-107.52 0-194.56 87.04-194.56 194.56V624.64C10.24 732.16 97.28 819.2 204.8 819.2h619.52c107.52 0 194.56-87.04 194.56-194.56v-476.16c-5.12-107.52-92.16-194.56-194.56-194.56zM199.68 737.28c-61.44 0-112.64-51.2-112.64-112.64v-476.16c0-61.44 51.2-112.64 112.64-112.64H819.2c61.44 0 112.64 51.2 112.64 112.64V624.64c0 61.44-51.2 112.64-112.64 112.64H199.68zM46.08 568.3199999999999h931.84v-76.8H46.08z"  horiz-adv-x="1024" />

    
    <glyph glyph-name="-setting" unicode="&#59405;" d="M919.424 641.408L531.2 865.5360000000001a38.4 38.4 0 0 1-38.4 0L104.576 641.408a38.4 38.4 0 0 1-19.2-33.28v-448a38.4 38.4 0 0 1 19.2-33.28L492.8-97.53599999999994a37.76 37.76 0 0 1 38.4 0l388.224 224.128a38.4 38.4 0 0 1 19.2 33.28v448a38.4 38.4 0 0 1-19.2 33.536z m-57.6-459.392L512-19.96799999999996 162.176 182.01599999999996V585.9839999999999L512 787.968l349.824-201.984z"  horiz-adv-x="1024" />

    
    <glyph glyph-name="-permission" unicode="&#59400;" d="M773.12 880.256H250.88a192 192 0 0 1-192-192v-762.112a38.4 38.4 0 0 1 54.656-34.816L512 76.79999999999995l398.464-185.6a38.4 38.4 0 0 1 54.656 34.816V688.256a192 192 0 0 1-192 192z m115.2-893.824L528.256 153.60000000000002a38.4 38.4 0 0 1-32.512 0L135.68-13.567999999999984V688.256a115.2 115.2 0 0 0 115.2 115.2h522.24a115.2 115.2 0 0 0 115.2-115.2z"  horiz-adv-x="1024" />

    
    <glyph glyph-name="-change-light" unicode="&#59401;" d="M297.472 427.776h429.056a38.4 38.4 0 1 1 0 76.8H378.112l50.432 62.336a38.4 38.4 0 1 1-59.648 48.384l-101.248-124.928a38.4 38.4 0 0 1 29.824-62.592zM726.528 340.22400000000005H297.472a38.4 38.4 0 1 1 0-76.8h348.416l-50.432-62.336a38.4 38.4 0 0 1 59.648-48.384l101.248 124.928a38.4 38.4 0 0 1-29.824 62.592z"  horiz-adv-x="1024" />

    
    <glyph glyph-name="-change" unicode="&#59402;" d="M793.6 857.6H230.4A192 192 0 0 1 38.4 665.6v-563.2a192 192 0 0 1 192-192h563.2a192 192 0 0 1 192 192V665.6A192 192 0 0 1 793.6 857.6z m115.2-755.2a115.2 115.2 0 0 0-115.2-115.2H230.4a115.2 115.2 0 0 0-115.2 115.2V665.6a115.2 115.2 0 0 0 115.2 115.2h563.2a115.2 115.2 0 0 0 115.2-115.2z"  horiz-adv-x="1024" />

    
    <glyph glyph-name="-scan-light" unicode="&#59403;" d="M807.424 422.4H216.576a38.4 38.4 0 0 1 0-76.8h590.848a38.4 38.4 0 0 1 0 76.8z"  horiz-adv-x="1024" />

    
    <glyph glyph-name="-scan" unicode="&#59404;" d="M300.288 844.8H142.592A91.392 91.392 0 0 1 51.2 753.408v-166.4a38.4 38.4 0 0 1 76.8 0v166.4A14.592 14.592 0 0 0 142.592 768h157.696a38.4 38.4 0 0 1 0 76.8zM300.288 0H142.592A14.592 14.592 0 0 0 128 14.591999999999985V172.288a38.4 38.4 0 0 1-76.8 0v-157.696A91.392 91.392 0 0 1 142.592-76.79999999999995h157.696a38.4 38.4 0 1 1 0 76.8zM934.4 210.688a38.4 38.4 0 0 1-38.4-38.4v-157.696A14.592 14.592 0 0 0 881.408 0H719.36a38.4 38.4 0 1 1 0-76.8h162.048A91.392 91.392 0 0 1 972.8 14.591999999999985V172.288a38.4 38.4 0 0 1-38.4 38.4zM881.408 844.8H719.36a38.4 38.4 0 0 1 0-76.8h162.048A14.592 14.592 0 0 0 896 753.408v-166.4a38.4 38.4 0 1 1 76.8 0v166.4A91.392 91.392 0 0 1 881.408 844.8z"  horiz-adv-x="1024" />

    
    <glyph glyph-name="-setting-light" unicode="&#59406;" d="M512 588.8a204.8 204.8 0 1 1 204.8-204.8 204.8 204.8 0 0 1-204.8 204.8z m0-332.8a128 128 0 1 0 128 128 128 128 0 0 0-128-128z"  horiz-adv-x="1024" />

    
    <glyph glyph-name="-notice" unicode="&#59407;" d="M895.232 202.24l-52.608 108.8V520.192C842.624 708.096 694.272 860.928 512 860.928S181.376 708.096 181.376 520.192V311.03999999999996l-52.608-108.8a65.664 65.664 0 0 1 3.456-64 64 64 0 0 1 54.272-30.208h651.008a64 64 0 0 1 54.272 30.208 65.664 65.664 0 0 1 3.456 64z m-689.536-17.28l44.8 92.672a76.8 76.8 0 0 1 7.68 33.408V520.192C258.176 665.6 371.968 784.128 512 784.128S765.824 665.6 765.824 520.192V311.03999999999996a76.8 76.8 0 0 1 7.68-33.408l44.8-92.672z"  horiz-adv-x="1024" />

    
    <glyph glyph-name="-customer" unicode="&#59408;" d="M535.168 884.096a468.48 468.48 0 0 1-110.592-923.904c-0.896-7.04-1.408-12.8-1.792-16.896a110.464 110.464 0 0 1 0-11.392 45.568 45.568 0 0 1 47.36-46.208c9.6 0 12.8 1.536 42.496 14.336 27.008 11.776 77.44 33.92 162.432 68.48 206.08 83.968 329.216 251.136 329.216 447.104A469.376 469.376 0 0 1 535.168 884.096z m110.848-844.8c-65.92-26.88-111.232-46.208-140.8-59.264 0 1.536 0 3.072 0.64 4.608A38.4 38.4 0 0 1 473.6 28.672000000000025a391.808 391.808 0 1 0 453.888 386.944c0-163.712-105.216-304.256-281.472-375.936z"  horiz-adv-x="1024" />

    
    <glyph glyph-name="-customer-light" unicode="&#59409;" d="M715.136 326.784a38.4 38.4 0 0 1-52.992-11.648 156.544 156.544 0 0 0-31.104-32.64 135.68 135.68 0 0 0-88.32-33.536 166.4 166.4 0 0 0-97.92 35.584 254.72 254.72 0 0 0-30.208 26.368c-3.2 3.2-6.144 6.528-9.088 9.984a38.4 38.4 0 0 1-59.904-48.64 199.552 199.552 0 0 1 13.824-15.36 326.272 326.272 0 0 1 39.552-34.304 240.896 240.896 0 0 1 143.744-50.432 212.608 212.608 0 0 1 136.96 51.2 223.104 223.104 0 0 1 47.104 51.2 38.4 38.4 0 0 1-11.648 52.224z"  horiz-adv-x="1024" />

    
    <glyph glyph-name="-help-light" unicode="&#59410;" d="M667.776 614.4H356.224a38.4 38.4 0 0 1 0-76.8h311.552a38.4 38.4 0 0 1 0 76.8z"  horiz-adv-x="1024" />

    
    <glyph glyph-name="-permission-light" unicode="&#59411;" d="M695.424 614.4H328.576a38.4 38.4 0 0 1 0-76.8h366.848a38.4 38.4 0 0 1 0 76.8z"  horiz-adv-x="1024" />

    
    <glyph glyph-name="-help" unicode="&#59412;" d="M988.672 450.176a38.4 38.4 0 0 1-36.096 3.584l-49.92-20.608V636.928a192 192 0 0 1-192 192h-396.8a192 192 0 0 1-192-192v-203.776l-49.92 20.608a38.4 38.4 0 0 1-53.12-35.456v-325.632a192 192 0 0 1 192-192h602.88a192 192 0 0 1 192 192V418.304a38.4 38.4 0 0 1-17.024 31.872zM198.144 636.928a115.2 115.2 0 0 0 115.2 115.2h396.8a115.2 115.2 0 0 0 115.2-115.2v-235.648l-269.312-111.616a114.176 114.176 0 0 0-88.064 0l-269.824 111.616z m730.752-544.256a115.2 115.2 0 0 0-115.2-115.2H210.304a115.2 115.2 0 0 0-115.2 115.2V360.832l343.424-142.08a189.952 189.952 0 0 1 146.944 0l343.424 142.08z"  horiz-adv-x="1024" />

    
    <glyph glyph-name="-about" unicode="&#59413;" d="M512 870.4a486.4 486.4 0 1 1 486.4-486.4A486.4 486.4 0 0 1 512 870.4z m0-896a409.6 409.6 0 1 0 409.6 409.6 409.6 409.6 0 0 0-409.6-409.6z"  horiz-adv-x="1024" />

    
    <glyph glyph-name="-notice-light" unicode="&#59414;" d="M749.184 28.416000000000054a38.4 38.4 0 0 1-53.76 7.552 325.12 325.12 0 0 0-45.568-28.8 320 320 0 0 0-295.296 0 325.12 325.12 0 0 0-45.568 28.8A38.4 38.4 0 1 1 262.784-25.600000000000023a396.8 396.8 0 0 1 422.4-35.584A390.144 390.144 0 0 1 741.632-25.600000000000023a38.4 38.4 0 0 1 7.552 54.016z"  horiz-adv-x="1024" />

    
    <glyph glyph-name="-about-light" unicode="&#59415;" d="M512 432.512a38.4 38.4 0 0 1-38.4-38.4v-225.024a38.4 38.4 0 0 1 76.8 0V394.112a38.4 38.4 0 0 1-38.4 38.4zM512 547.712m-51.2 0a51.2 51.2 0 1 1 102.4 0 51.2 51.2 0 1 1-102.4 0Z"  horiz-adv-x="1024" />

    
    <glyph glyph-name="zhkf-xuanze" unicode="&#59146;" d="M512 896c282.7776 0 512-229.2224 512-512s-229.2224-512-512-512S0 101.2224 0 384 229.2224 896 512 896z m196.5568-320.512L448.512 320.71680000000003 334.848 432.128a46.592 46.592 0 0 1-60.4672 4.096l-5.4272-4.7616a45.568 45.568 0 0 1 0.6656-64.4608l146.6368-143.7184a46.08 46.08 0 0 1 64.512 0l293.4784 287.5904a45.568 45.568 0 0 1-0.512 64.6144 46.592 46.592 0 0 1-65.2288 0z"  horiz-adv-x="1024" />

    
    <glyph glyph-name="gonggao" unicode="&#59434;" d="M512 896c282.766222 0 512-229.233778 512-512s-229.233778-512-512-512S0 101.233778 0 384 229.233778 896 512 896z m121.6-248.888889v0.056889l-2.56 3.640889a45.312 45.312 0 0 1-59.875556 10.723555l-183.153777-114.432H290.986667A63.431111 63.431111 0 0 1 227.555556 483.669333v-199.310222a63.431111 63.431111 0 0 1 63.431111-63.431111h97.024l183.153777-114.460444a45.312 45.312 0 0 1 69.319112 38.4V623.160889c0 8.533333-2.389333 16.782222-6.883556 24.035555v-0.028444z m96.142222-85.532444a21.333333 21.333333 0 0 1-21.304889-33.166223 252.728889 252.728889 0 0 0 0.085334-288.739555 21.333333 21.333333 0 0 1 35.043555-24.291556 295.395556 295.395556 0 0 1-0.056889 337.379556 21.333333 21.333333 0 0 1-13.738666 8.817778z"  horiz-adv-x="1024" />

    
    <glyph glyph-name="-workbench-light" unicode="&#58929;" d="M837.818182 640h-69.818182V756.363636c0 65.163636-51.2 116.363636-116.363636 116.363637H372.363636C307.2 872.727273 256 821.527273 256 756.363636v-116.363636H186.181818C121.018182 640 69.818182 588.8 69.818182 523.636364v-465.454546c0-65.163636 51.2-116.363636 116.363636-116.363636h651.636364c65.163636 0 116.363636 51.2 116.363636 116.363636V523.636364c0 65.163636-51.2 116.363636-116.363636 116.363636zM325.818182 756.363636c0 27.927273 18.618182 46.545455 46.545454 46.545455h279.272728c27.927273 0 46.545455-18.618182 46.545454-46.545455v-116.363636H325.818182V756.363636z m474.763636-451.490909c-69.818182-23.272727-172.218182-37.236364-256-41.890909v-18.618182c0-18.618182-13.963636-37.236364-37.236363-37.236363s-37.236364 13.963636-37.236364 37.236363v18.618182c-83.781818 4.654545-186.181818 18.618182-256 41.890909-18.618182 4.654545-27.927273 27.927273-23.272727 46.545455s27.927273 27.927273 46.545454 23.272727c60.509091-18.618182 158.254545-32.581818 232.727273-37.236364 0 18.618182 13.963636 37.236364 37.236364 37.236364s37.236364-13.963636 37.236363-37.236364v-4.654545c74.472727 4.654545 172.218182 13.963636 232.727273 37.236364 18.618182 4.654545 37.236364-4.654545 46.545454-23.272728 4.654545-18.618182-4.654545-37.236364-23.272727-41.890909z"  horiz-adv-x="1024" />

    
    <glyph glyph-name="-todo-light" unicode="&#58930;" d="M791.272727 779.636364h-102.4V849.454545c0 18.618182-13.963636 37.236364-37.236363 37.236364s-37.236364-18.618182-37.236364-37.236364v-69.818181H409.6V849.454545c0 18.618182-13.963636 37.236364-37.236364 37.236364s-37.236364-18.618182-37.236363-37.236364v-69.818181H232.727273C167.563636 779.636364 116.363636 728.436364 116.363636 663.272727v-605.090909c0-65.163636 51.2-116.363636 116.363637-116.363636h558.545454c65.163636 0 116.363636 51.2 116.363637 116.363636V663.272727c0 65.163636-51.2 116.363636-116.363637 116.363637zM679.563636 430.545455l-190.836363-214.109091c-4.654545-4.654545-13.963636-9.309091-23.272728-9.309091s-18.618182 4.654545-23.272727 9.309091l-97.745454 88.436363c-18.618182 9.309091-18.618182 32.581818-9.309091 46.545455 13.963636 13.963636 37.236364 13.963636 51.2 0L456.145455 290.909091l167.563636 186.181818c13.963636 13.963636 37.236364 13.963636 51.2 4.654546 13.963636-13.963636 13.963636-37.236364 4.654545-51.2z"  horiz-adv-x="1024" />

    
    <glyph glyph-name="-user-light" unicode="&#58931;" d="M512 90.76363600000002c32.581818 0 65.163636 9.309091 93.090909 32.581819 13.963636 13.963636 18.618182 32.581818 4.654546 51.2-13.963636 13.963636-32.581818 18.618182-51.2 4.654545-13.963636-9.309091-32.581818-18.618182-46.545455-18.618182-18.618182 0-32.581818 4.654545-46.545455 18.618182-13.963636 13.963636-37.236364 9.309091-51.2-4.654545s-9.309091-41.890909 4.654546-51.2c27.927273-18.618182 60.509091-32.581818 93.090909-32.581819zM512 886.690909C288.581818 886.690909 102.4 700.509091 102.4 477.090909v-46.545454c0-18.618182 13.963636-37.236364 37.236364-37.236364h55.854545V244.36363600000004c0-172.218182 139.636364-316.509091 316.509091-316.509091s316.509091 139.636364 316.509091 316.509091v148.945455H884.363636c18.618182 0 37.236364 13.963636 37.236364 37.236364V477.090909c0 223.418182-186.181818 409.6-409.6 409.6zM614.4 756.363636c0 18.618182 13.963636 37.236364 37.236364 37.236364s37.236364-13.963636 37.236363-37.236364v-139.636363c0-18.618182-13.963636-37.236364-37.236363-37.236364s-37.236364 18.618182-37.236364 37.236364V756.363636z m-279.272727 0c0 18.618182 13.963636 37.236364 37.236363 37.236364s37.236364-18.618182 37.236364-37.236364v-139.636363c0-18.618182-13.963636-37.236364-37.236364-37.236364s-37.236364 18.618182-37.236363 37.236364V756.363636z m418.909091-512c0-134.981818-111.709091-242.036364-242.036364-242.036363S269.963636 109.38181799999995 269.963636 244.36363600000004v148.945455h484.072728V244.36363600000004z"  horiz-adv-x="1024" />

    
    <glyph glyph-name="-todo" unicode="&#58926;" d="M828.509091 779.636364h-139.636364V849.454545c0 18.618182-13.963636 37.236364-37.236363 37.236364s-37.236364-18.618182-37.236364-37.236364v-69.818181H409.6V849.454545c0 18.618182-13.963636 37.236364-37.236364 37.236364s-37.236364-18.618182-37.236363-37.236364v-69.818181h-139.636364c-46.545455 0-83.781818-37.236364-83.781818-83.781819v-674.90909c0-46.545455 37.236364-83.781818 83.781818-83.781819h628.363636c46.545455 0 83.781818 37.236364 83.781819 83.781819V700.509091c0 41.890909-37.236364 79.127273-79.127273 79.127273z m9.309091-758.690909c0-4.654545-4.654545-9.309091-9.309091-9.309091H195.490909c-4.654545 0-9.309091 4.654545-9.309091 9.309091V700.509091c0 4.654545 4.654545 9.309091 9.309091 9.309091h139.636364v-46.545455c0-18.618182 13.963636-37.236364 37.236363-37.236363s37.236364 18.618182 37.236364 37.236363V709.818182h209.454545v-46.545455c0-18.618182 13.963636-37.236364 37.236364-37.236363s37.236364 13.963636 37.236364 37.236363V709.818182h139.636363s4.654545-4.654545 4.654546-9.309091v-679.563636zM460.8 207.12727299999995c-9.309091 0-18.618182 4.654545-23.272727 9.309091l-97.745455 88.436363c-13.963636 9.309091-13.963636 32.581818-4.654545 46.545455 13.963636 13.963636 37.236364 13.963636 51.2 0L456.145455 290.909091l167.563636 186.181818c13.963636 13.963636 37.236364 13.963636 51.2 4.654546 13.963636-13.963636 13.963636-37.236364 4.654545-51.2l-190.836363-214.109091c-9.309091-4.654545-18.618182-9.309091-27.927273-9.309091z"  horiz-adv-x="1024" />

    
    <glyph glyph-name="-workbench" unicode="&#58927;" d="M875.054545 640h-102.4V756.363636c0 65.163636-51.2 116.363636-116.363636 116.363637H372.363636C307.2 872.727273 256 821.527273 256 756.363636v-116.363636H148.945455c-46.545455 0-83.781818-37.236364-83.781819-83.781818v-535.272727c0-46.545455 37.236364-83.781818 83.781819-83.781819h721.454545c46.545455 0 83.781818 37.236364 83.781818 83.781819V560.8727269999999c0 41.890909-37.236364 79.127273-79.127273 79.127273zM325.818182 756.363636c0 27.927273 18.618182 46.545455 46.545454 46.545455h279.272728c27.927273 0 46.545455-18.618182 46.545454-46.545455v-116.363636H325.818182V756.363636z m558.545454-735.418181c0-4.654545-4.654545-9.309091-9.309091-9.309091H148.945455c-4.654545 0-9.309091 4.654545-9.309091 9.309091V560.8727269999999c0 4.654545 4.654545 9.309091 9.309091 9.309091h721.454545c9.309091 0 13.963636-4.654545 13.963636-9.309091v-539.927272zM823.854545 346.763636c-4.654545 18.618182-27.927273 27.927273-46.545454 23.272728-60.509091-18.618182-158.254545-32.581818-232.727273-37.236364V337.45454500000005c0 18.618182-13.963636 37.236364-37.236363 37.236364s-37.236364-13.963636-37.236364-37.236364v-4.654545c-74.472727 4.654545-172.218182 13.963636-232.727273 37.236364-18.618182 4.654545-37.236364-4.654545-46.545454-23.272728-4.654545-18.618182 4.654545-37.236364 23.272727-46.545454 69.818182-23.272727 172.218182-37.236364 256-41.890909v-13.963637c0-18.618182 13.963636-37.236364 37.236364-37.236363s37.236364 13.963636 37.236363 37.236363v18.618182c83.781818 4.654545 186.181818 18.618182 256 41.890909 18.618182 4.654545 27.927273 23.272727 23.272727 41.890909z"  horiz-adv-x="1024" />

    
    <glyph glyph-name="-user" unicode="&#58928;" d="M512 90.76363600000002c-32.581818 0-65.163636 9.309091-93.090909 32.581819-13.963636 13.963636-18.618182 32.581818-4.654546 51.2 9.309091 13.963636 32.581818 18.618182 51.2 4.654545 27.927273-23.272727 69.818182-23.272727 97.745455 0 13.963636 13.963636 37.236364 9.309091 51.2-4.654545s9.309091-37.236364-4.654545-51.2c-32.581818-18.618182-65.163636-32.581818-97.745455-32.581819zM512 886.690909C288.581818 886.690909 102.4 700.509091 102.4 477.090909v-46.545454c0-18.618182 13.963636-37.236364 37.236364-37.236364h55.854545V244.36363600000004c0-172.218182 139.636364-316.509091 316.509091-316.509091 172.218182 0 316.509091 139.636364 316.509091 316.509091v148.945455H884.363636c18.618182 0 37.236364 13.963636 37.236364 37.236364V477.090909c0 223.418182-186.181818 409.6-409.6 409.6zM754.036364 244.36363600000004c0-134.981818-111.709091-242.036364-242.036364-242.036363-134.981818 0-242.036364 111.709091-242.036364 242.036363v148.945455h484.072728V244.36363600000004z m93.090909 223.418182H176.872727V477.090909c0 121.018182 65.163636 228.072727 162.909091 288.581818V616.727273c0-18.618182 13.963636-37.236364 37.236364-37.236364s32.581818 18.618182 32.581818 37.236364V798.254545c32.581818 9.309091 69.818182 18.618182 102.4 18.618182s69.818182-4.654545 102.4-18.618182V616.727273c0-18.618182 13.963636-37.236364 37.236364-37.236364s37.236364 13.963636 37.236363 37.236364V765.672727c97.745455-60.509091 162.909091-167.563636 162.909091-288.581818l-4.654545-9.309091z"  horiz-adv-x="1024" />

    
    <glyph glyph-name="-arrow-down" unicode="&#58924;" d="M38.4 614.4c38.4 38.4 102.4 38.4 140.8 0l294.4-294.4c25.6-25.6 64-25.6 89.6 0l294.4 294.4c38.4 38.4 102.4 38.4 140.8 0s38.4-102.4 0-140.8L652.8 128c-76.8-76.8-192-76.8-268.8 0L38.4 473.6C0 512 0 576 38.4 614.4z"  horiz-adv-x="1027" />

    
    <glyph glyph-name="-circle" unicode="&#58925;" d="M512 896c284.444444 0 512-227.555556 512-512s-227.555556-512-512-512-512 227.555556-512 512 227.555556 512 512 512z m0-85.333333C278.755556 810.666667 85.333333 617.2444439999999 85.333333 384s193.422222-426.666667 426.666667-426.666667 426.666667 193.422222 426.666667 426.666667S745.244444 810.666667 512 810.666667z"  horiz-adv-x="1024" />

    
    <glyph glyph-name="-selected" unicode="&#58923;" d="M998.4 710.4c-32 32-76.8 32-108.8 0l-518.4-499.2-236.8 224c-32 32-76.8 32-108.8 0-25.6-32-25.6-76.8 0-102.4L320 51.200000000000045c12.8-12.8 32-19.2 51.2-19.2s38.4 6.4 51.2 19.2l576 556.8c32 25.6 32 70.4 0 102.4z"  horiz-adv-x="1024" />

    
    <glyph glyph-name="-clearing" unicode="&#58920;" d="M953.6 512l-19.2 19.2-128 64 83.2 166.4c6.4 6.4 6.4 25.6 0 38.4-6.4 12.8-19.2 19.2-32 25.6-12.8 6.4-25.6 6.4-38.4 6.4-12.8 0-25.6-12.8-32-19.2L704 646.4l-134.4 64h-12.8H505.6c-38.4-64-64-102.4-102.4-140.8-19.2-25.6-44.8-44.8-70.4-64-70.4-57.6-147.2-102.4-236.8-134.4-19.2-12.8-32-32-32-51.2 0-19.2 6.4-38.4 25.6-44.8l544-326.4c6.4 0 12.8-6.4 12.8-6.4 6.4-6.4 19.2-6.4 25.6-6.4 12.8 0 25.6 6.4 38.4 12.8 76.8 76.8 140.8 160 185.6 249.6 44.8 89.6 64 185.6 64 281.6 0 12.8 0 25.6-6.4 32z m-153.6-268.8c-32-70.4-76.8-134.4-134.4-192l-83.2 51.2 57.6 57.6c12.8 6.4 12.8 19.2 12.8 38.4 0 12.8-6.4 25.6-12.8 38.4-19.2 19.2-51.2 19.2-70.4 0l-76.8-70.4-102.4 64L448 256c12.8 6.4 19.2 19.2 19.2 32s0 25.6-6.4 38.4c-19.2 25.6-51.2 25.6-70.4 12.8l-96-64-70.4 38.4c64 32 121.6 70.4 179.2 115.2 19.2 12.8 38.4 32 51.2 51.2l358.4-198.4c-6.4-19.2-6.4-25.6-12.8-38.4z m44.8 128l-320 179.2c12.8 19.2 25.6 32 32 51.2l300.8-147.2c-6.4-25.6-6.4-57.6-12.8-83.2z"  horiz-adv-x="1024" />

    
    <glyph glyph-name="-fail" unicode="&#58921;" d="M960 422.4c0 249.6-198.4 448-448 448s-448-198.4-448-448v-64h64V256c0-211.2 172.8-384 384-384s384 172.8 384 384V358.4h64v64zM806.4 256c0-160-134.4-294.4-294.4-294.4S217.6 96 217.6 256V358.4h588.8V256zM320 723.2v-128c0-19.2 19.2-44.8 51.2-44.8s44.8 25.6 44.8 51.2V768c32 6.4 64 12.8 96 12.8s64-6.4 96-12.8v-166.4c0-25.6 19.2-51.2 51.2-51.2s44.8 25.6 44.8 51.2v128c96-57.6 160-160 166.4-275.2H153.6C160 563.2 224 665.6 320 723.2zM435.2 102.39999999999998c19.2 19.2 44.8 25.6 76.8 25.6s57.6-6.4 64-19.2l6.4-6.4c19.2-12.8 44.8-12.8 57.6 0 12.8 19.2 12.8 44.8 0 57.6-25.6 25.6-70.4 44.8-128 44.8-51.2 0-96-12.8-128-44.8-19.2-12.8-19.2-44.8 0-57.6 12.8-6.4 32-12.8 51.2 0z"  horiz-adv-x="1024" />

    
    <glyph glyph-name="zhaopian" unicode="&#58922;" d="M951.466667 793.6H59.733333C25.6 793.6 0 768 0 733.866667v-721.066667c0-34.133333 25.6-59.733333 59.733333-59.733333h891.733334c34.133333 0 59.733333 25.6 59.733333 59.733333V733.866667c-4.266667 34.133333-29.866667 59.733333-59.733333 59.733333zM938.666667 362.666667c0-17.066667-21.333333-25.6-34.133334-12.8l-187.733333 187.733333s-8.533333 8.533333-17.066667 8.533333c-12.8 0-17.066667-8.533333-17.066666-8.533333l-230.4-234.666667c-8.533333-8.533333-21.333333-8.533333-25.6 0l-115.2 110.933334s-8.533333 8.533333-17.066667 8.533333-17.066667-4.266667-17.066667-4.266667l-179.2-179.2c-12.8-12.8-34.133333-4.266667-34.133333 12.8V695.466667c0 17.066667 12.8 25.6 25.6 25.6h814.933333c17.066667 0 25.6-12.8 25.6-25.6v-332.8h8.533334zM149.333333 580.266667c0-34.133333 25.6-59.733333 59.733334-59.733334s64 29.866667 64 59.733334S243.2 644.266667 213.333333 644.266667s-64-29.866667-64-64z"  horiz-adv-x="1024" />

    
    <glyph glyph-name="-clear" unicode="&#58915;" d="M512 896a512 512 0 1 0-512-512 512 512 0 0 0 512 512zM315.52 629.76a34.56 34.56 0 1 1-49.28-49.28L462.72 384l-196.48-196.48a34.56 34.56 0 1 1 49.28-49.28L512 334.72l196.48-196.48a34.56 34.56 0 0 1 49.28 49.28L561.28 384l196.48 196.48a34.56 34.56 0 1 1-49.28 49.28L512 433.28z"  horiz-adv-x="1024" />

    
    <glyph glyph-name="-eye-close" unicode="&#58916;" d="M512 252.58666700000003A796.444444 796.444444 0 0 0 13.084444 413.582222a35.271111 35.271111 0 0 0-3.413333 51.2 38.684444 38.684444 0 0 0 53.475556 3.413334c230.968889-191.715556 668.444444-191.715556 898.275555 0a38.684444 38.684444 0 0 0 53.475556-3.413334 35.271111 35.271111 0 0 0-3.413334-51.2A796.444444 796.444444 0 0 0 512 252.58666700000003zM375.466667 93.866667h-6.826667a37.546667 37.546667 0 0 0-27.306667 14.791111 34.702222 34.702222 0 0 0-5.688889 28.444444l25.031112 141.653334a38.115556 38.115556 0 0 0 43.804444 29.582222 36.408889 36.408889 0 0 0 30.72-42.097778l-25.031111-141.653333a36.977778 36.977778 0 0 0-34.702222-30.72z m560.924444 71.68a37.546667 37.546667 0 0 0-26.168889 10.808889l-122.88 120.035555a35.271111 35.271111 0 0 0-11.946666 35.84 36.977778 36.977778 0 0 0 27.875555 26.168889 38.115556 38.115556 0 0 0 36.977778-11.946667l122.88-120.035555a34.702222 34.702222 0 0 0 0-50.631111 39.822222 39.822222 0 0 0-26.737778-10.24z m-848.213333 0a39.822222 39.822222 0 0 0-25.031111 10.24 34.702222 34.702222 0 0 0 0 50.631111l122.88 120.035555a38.115556 38.115556 0 0 0 38.684444 14.791111 36.408889 36.408889 0 0 0 29.013333-28.444444 35.271111 35.271111 0 0 0-15.928888-36.977778L113.777778 176.35555599999998a37.546667 37.546667 0 0 0-26.737778-10.808889z m562.631111-71.68a36.977778 36.977778 0 0 0-36.408889 29.582222l-25.031111 141.653333a34.702222 34.702222 0 0 0 9.671111 37.546667 38.684444 38.684444 0 0 0 39.253333 7.395555 35.84 35.84 0 0 0 23.893334-31.288888l25.031111-141.653334a34.702222 34.702222 0 0 0-6.257778-26.737778 37.546667 37.546667 0 0 0-23.893333-14.791111h-6.257778z"  horiz-adv-x="1024" />

    
    <glyph glyph-name="-eye-open" unicode="&#58917;" d="M512.351004 725.333333q260.551111 0 479.004445-253.724444a137.102222 137.102222 0 0 0 6.826667-170.666667l-6.826667-8.533333-15.36-17.635556Q763.799893 42.66666699999996 512.351004 42.66666699999996q-260.551111 0-479.004444 252.017777a137.102222 137.102222 0 0 0-6.826667 170.666667l6.826667 8.533333 15.36 17.635556Q260.902116 725.333333 512.351004 725.333333z m0-80.782222c-142.222222 0-275.342222-67.697778-401.066666-207.644444l-14.791111-17.066667a56.888889 56.888889 0 0 1 0-71.68c130.844444-151.893333 268.515556-227.555556 416.426666-227.555556s275.342222 67.697778 401.066667 207.644445l14.791111 17.066667a56.888889 56.888889 0 0 1 0 71.68C796.795449 571.733333 660.262116 644.551111 512.351004 644.551111zM512.351004 560.924444A176.924444 176.924444 0 1 0 335.42656 384 176.924444 176.924444 0 0 0 512.351004 560.924444z m0-79.075555A97.848889 97.848889 0 1 1 610.199893 384 97.848889 97.848889 0 0 1 512.351004 481.848889z"  horiz-adv-x="1024" />

    


  </font>
</defs>
</svg>
