<?xml version="1.0" standalone="no"?>
<!DOCTYPE svg PUBLIC "-//W3C//DTD SVG 1.1//EN" "http://www.w3.org/Graphics/SVG/1.1/DTD/svg11.dtd" >
<!--
2013-9-30: Created.
-->
<svg>
<metadata>
Created by iconfont
</metadata>
<defs>

<font id="iconfont" horiz-adv-x="1024" >
  <font-face
    font-family="iconfont"
    font-weight="500"
    font-stretch="normal"
    units-per-em="1024"
    ascent="896"
    descent="-128"
  />
    <missing-glyph />
    
    <glyph glyph-name="weishoucang" unicode="&#59077;" d="M532.619636 786.013091a46.545455 46.545455 0 0 0 21.131637-21.131636l102.074182-206.848 228.305454-33.18691a46.545455 46.545455 0 0 0 25.786182-79.406545L744.727273 284.392727l39.005091-227.328a46.545455 46.545455 0 0 0-67.537455-49.058909l-182.551273 95.930182a46.545455 46.545455 0 0 1-43.287272 0l-182.551273-95.930182a46.545455 46.545455 0 0 0-67.490909 49.058909L279.272727 284.392727 114.036364 445.44a46.545455 46.545455 0 0 0 25.832727 79.36l228.305454 33.186909 102.074182 206.848a46.545455 46.545455 0 0 0 62.370909 21.131636z m76.846546-291.84L512 691.758545 414.533818 494.219636l-217.972363-31.650909 157.742545-153.786182-37.282909-217.041454 140.846545 74.007273a116.363636 116.363636 0 0 0 100.352 3.816727l7.912728-3.816727 140.8-74.007273-37.236364 217.041454 157.696 153.786182-217.925818 31.650909z"  horiz-adv-x="1024" />

    
    <glyph glyph-name="yishoucang" unicode="&#59076;" d="M490.356364 103.936l-182.551273-95.930182a46.545455 46.545455 0 0 0-67.490909 49.058909L279.272727 284.392727 114.036364 445.44a46.545455 46.545455 0 0 0 25.832727 79.36l228.305454 33.186909 102.074182 206.848a46.545455 46.545455 0 0 0 83.502546 0l102.074182-206.848 228.305454-33.186909a46.545455 46.545455 0 0 0 25.786182-79.406545L744.727273 284.392727l39.005091-227.328a46.545455 46.545455 0 0 0-67.537455-49.058909l-182.551273 95.930182a46.545455 46.545455 0 0 1-43.287272 0z"  horiz-adv-x="1024" />

    
    <glyph glyph-name="suoxiao" unicode="&#58966;" d="M448.683581 896c247.799582 0 448.683581-200.9693 448.683582-448.896834 0-112.298847-41.243063-214.958674-109.398611-293.691553l226.303715-226.303715a32.073199 32.073199 0 1 0-45.294863-45.337514l-226.303716 226.261064a446.806958 446.806958 0 0 0-293.990107-109.782466C200.883999-1.793668 0 199.218282 0 447.103166 0 695.0307 200.883999 896 448.683581 896z m0-64.146398c-212.399642 0-384.579834-172.222842-384.579834-384.707786 0-212.527594 172.180192-384.793087 384.579834-384.793086 212.399642 0 384.579834 172.308143 384.579834 384.750436 0 212.527594-172.180192 384.750436-384.579834 384.750436z m245.752357-363.38252a31.987898 31.987898 0 0 0 31.987898-31.987898v-0.127952a31.987898 31.987898 0 0 0-31.987898-31.987898H245.624405a31.987898 31.987898 0 0 0-31.987897 31.987898v0.170602a31.987898 31.987898 0 0 0 31.987897 31.987898h448.811533z"  horiz-adv-x="1024" />

    
    <glyph glyph-name="fangda" unicode="&#58967;" d="M448.683581 896c247.799582 0 448.683581-200.9693 448.683582-448.896834 0-112.298847-41.243063-214.958674-109.398611-293.691553l226.303715-226.303715a32.073199 32.073199 0 1 0-45.294863-45.337514l-226.303716 226.261064a446.806958 446.806958 0 0 0-293.990107-109.782466C200.883999-1.793668 0 199.218282 0 447.103166 0 695.0307 200.883999 896 448.683581 896z m0-64.146398c-212.399642 0-384.579834-172.222842-384.579834-384.707786 0-212.527594 172.180192-384.793087 384.579834-384.793086 212.399642 0 384.579834 172.308143 384.579834 384.750436 0 212.527594-172.180192 384.750436-384.579834 384.750436z m21.410567-138.912778a31.987898 31.987898 0 0 0 31.987898-31.987898v-192.439194h192.353892a31.987898 31.987898 0 0 0 31.987898-31.987898v-0.170602a31.987898 31.987898 0 0 0-31.987898-31.987898l-192.353892 0.042651v-192.481844a31.987898 31.987898 0 0 0-31.987898-31.987898h-0.127952a31.987898 31.987898 0 0 0-31.987898 31.987898v192.481844l-192.353893-0.042651a31.987898 31.987898 0 0 0-31.987897 31.987898v0.170602a31.987898 31.987898 0 0 0 31.987897 31.987898h192.353893V660.952926a31.987898 31.987898 0 0 0 31.987898 31.987898h0.127952z"  horiz-adv-x="1024" />

    
    <glyph glyph-name="2" unicode="&#58964;" d="M910.222222 327.111111a113.777778 113.777778 0 0 0 113.777778-113.777778v-227.555555a113.777778 113.777778 0 0 0-113.777778-113.777778H113.777778a113.777778 113.777778 0 0 0-113.777778 113.777778v227.555555a113.777778 113.777778 0 0 0 113.777778 113.777778h796.444444z m0-85.333333H113.777778a28.444444 28.444444 0 0 1-27.989334-23.324445L85.333333 213.333333v-227.555555a28.444444 28.444444 0 0 1 23.324445-27.989334L113.777778-42.666667h796.444444a28.444444 28.444444 0 0 1 27.989334 23.324445L938.666667-14.222222v227.555555a28.444444 28.444444 0 0 1-23.324445 27.989334L910.222222 241.777778zM910.222222 896a113.777778 113.777778 0 0 0 113.777778-113.777778v-227.555555a113.777778 113.777778 0 0 0-113.777778-113.777778H113.777778a113.777778 113.777778 0 0 0-113.777778 113.777778V782.222222a113.777778 113.777778 0 0 0 113.777778 113.777778h796.444444z m0-85.333333H113.777778a28.444444 28.444444 0 0 1-27.989334-23.324445L85.333333 782.222222v-227.555555a28.444444 28.444444 0 0 1 23.324445-27.989334L113.777778 526.222222h796.444444a28.444444 28.444444 0 0 1 27.989334 23.324445L938.666667 554.666667V782.222222a28.444444 28.444444 0 0 1-23.324445 27.989334L910.222222 810.666667z"  horiz-adv-x="1024" />

    
    <glyph glyph-name="4" unicode="&#58965;" d="M341.333333 896a113.777778 113.777778 0 0 0 113.777778-113.777778v-227.555555a113.777778 113.777778 0 0 0-113.777778-113.777778H113.777778a113.777778 113.777778 0 0 0-113.777778 113.777778V782.222222a113.777778 113.777778 0 0 0 113.777778 113.777778h227.555555z m0-85.333333H113.777778a28.444444 28.444444 0 0 1-27.989334-23.324445L85.333333 782.222222v-227.555555a28.444444 28.444444 0 0 1 23.324445-27.989334L113.777778 526.222222h227.555555a28.444444 28.444444 0 0 1 27.989334 23.324445L369.777778 554.666667V782.222222a28.444444 28.444444 0 0 1-23.324445 27.989334L341.333333 810.666667zM341.333333 332.8a113.777778 113.777778 0 0 0 113.777778-113.777778v-227.555555a113.777778 113.777778 0 0 0-113.777778-113.777778H113.777778a113.777778 113.777778 0 0 0-113.777778 113.777778v227.555555a113.777778 113.777778 0 0 0 113.777778 113.777778h227.555555z m0-85.333333H113.777778a28.444444 28.444444 0 0 1-27.989334-23.324445l-0.455111-5.12v-227.555555a28.444444 28.444444 0 0 1 23.324445-27.989334L113.777778-36.977778h227.555555a28.444444 28.444444 0 0 1 27.989334 23.324445l0.455111 5.12v227.555555a28.444444 28.444444 0 0 1-23.324445 27.989334L341.333333 247.466667zM904.533333 332.8a113.777778 113.777778 0 0 0 113.777778-113.777778v-227.555555a113.777778 113.777778 0 0 0-113.777778-113.777778h-227.555555a113.777778 113.777778 0 0 0-113.777778 113.777778v227.555555a113.777778 113.777778 0 0 0 113.777778 113.777778h227.555555z m0-85.333333h-227.555555a28.444444 28.444444 0 0 1-27.989334-23.324445l-0.455111-5.12v-227.555555a28.444444 28.444444 0 0 1 23.324445-27.989334l5.12-0.455111h227.555555a28.444444 28.444444 0 0 1 27.989334 23.324445l0.455111 5.12v227.555555a28.444444 28.444444 0 0 1-23.324445 27.989334l-5.12 0.455111zM904.533333 896a113.777778 113.777778 0 0 0 113.777778-113.777778v-227.555555a113.777778 113.777778 0 0 0-113.777778-113.777778h-227.555555a113.777778 113.777778 0 0 0-113.777778 113.777778V782.222222a113.777778 113.777778 0 0 0 113.777778 113.777778h227.555555z m0-85.333333h-227.555555a28.444444 28.444444 0 0 1-27.989334-23.324445L648.533333 782.222222v-227.555555a28.444444 28.444444 0 0 1 23.324445-27.989334l5.12-0.455111h227.555555a28.444444 28.444444 0 0 1 27.989334 23.324445L932.977778 554.666667V782.222222a28.444444 28.444444 0 0 1-23.324445 27.989334L904.533333 810.666667z"  horiz-adv-x="1024" />

    
    <glyph glyph-name="dianweitu" unicode="&#58957;" d="M477.090909 139.636364h-69.818182v139.636363h488.727273v209.454546h-209.454545V384h-69.818182V721.454545H465.454545v69.818182h221.09091v-232.727272h279.272727v-581.818182H104.727273V791.272727h235.659636v-69.818182H174.545455V523.636364H325.818182v-69.818182H174.545455v-407.272727h721.454545v162.90909h-418.909091v-69.818181zM279.272727 290.909091a46.545455 46.545455 0 1 0 0-93.090909 46.545455 46.545455 0 0 0 0 93.090909z m232.727273 279.272727a46.545455 46.545455 0 1 0 0-93.090909 46.545455 46.545455 0 0 0 0 93.090909z"  horiz-adv-x="1024" />

    
    <glyph glyph-name="xiangmu" unicode="&#58956;" d="M877.371077-54.193231v363.913846l-294.596923 147.456V896H145.92v-950.193231H0V-128h1024v73.806769h-146.628923z m-292.667077 217.442462h146.274462v-146.195693h-146.274462v146.195693zM290.185846 750.119385h146.747077v-146.628923H290.185846V750.119385z m0-292.94277h146.747077v-146.668307H290.185846v146.668307z m0-291.958153h146.747077v-146.786462H290.185846v146.786462z"  horiz-adv-x="1024" />

    
    <glyph glyph-name="mic" unicode="&#58955;" d="M819.2 422.4a38.4 38.4 0 0 0 38.4-38.4c0-151.36-123.52-274.88-281.536-292.288L576-51.2h102.4a38.4 38.4 0 0 0 0-76.8H396.8a38.4 38.4 0 0 0 0 76.8h102.4l-0.064 142.912C341.12 109.12 217.6 232.64 217.6 384a38.4 38.4 0 1 0 76.8 0c0-119.168 107.776-217.344 242.56-217.6h1.216l12.416 0.32C679.552 172.736 780.8 268.48 780.8 384a38.4 38.4 0 0 0 38.4 38.4zM537.6 896c105.024 0 190.144-91.712 190.144-204.8v-256c0-113.088-85.12-204.8-190.144-204.8S347.456 322.112 347.456 435.2v256C347.456 804.288 432.576 896 537.6 896z"  horiz-adv-x="1088" />

    
    <glyph glyph-name="tianjia" unicode="&#58952;" d="M512 896c282.7776 0 512-229.2224 512-512s-229.2224-512-512-512S0 101.2224 0 384 229.2224 896 512 896z m0-76.8a435.2 435.2 0 1 1 0-870.4 435.2 435.2 0 0 1 0 870.4zM512 640a38.4 38.4 0 0 0 38.4-38.4v-179.2h179.2a38.4 38.4 0 1 0 0-76.8h-179.2v-179.2a38.4 38.4 0 1 0-76.8 0v179.2h-179.2a38.4 38.4 0 1 0 0 76.8h179.2v179.2A38.4 38.4 0 0 0 512 640z"  horiz-adv-x="1024" />

    
    <glyph glyph-name="yidong" unicode="&#58951;" d="M976 0a48 48 0 1 0 0-96H48a48 48 0 1 0 0 96h928z m0 448a48 48 0 1 0 0-96H48a48 48 0 1 0 0 96h928z m0 448a48 48 0 1 0 0-96H48a48 48 0 0 0 0 96h928z"  horiz-adv-x="1024" />

    
    <glyph glyph-name="zhiding" unicode="&#58949;" d="M499.2 742.4c12.6976 0 23.9616-6.144 30.976-15.6672l3.4816-3.072 307.712-307.712a38.4 38.4 0 0 0-49.9712-58.0608l-4.3008 3.7376L537.6 611.1744 537.6-89.6a38.4 38.4 0 1 0-76.8 0V611.7376l-248.9344-248.9856a38.4 38.4 0 0 0-54.272 54.272l307.712 307.7632a38.7072 38.7072 0 0 0 4.5056 3.8912A38.2464 38.2464 0 0 0 499.2 742.4z m281.6 153.6a38.4 38.4 0 1 0 0-76.8H243.2a38.4 38.4 0 0 0 0 76.8h537.6z"  horiz-adv-x="1024" />

    
    <glyph glyph-name="zhouyueshijiantongji" unicode="&#58948;" d="M512 837.818182a430.545455 430.545455 0 0 0 430.545455-430.545455 34.909091 34.909091 0 1 0-69.818182 0A360.727273 360.727273 0 1 1 512 46.54545499999995a34.909091 34.909091 0 1 0 0-69.818182 430.545455 430.545455 0 0 0 0 861.090909z m151.272727-663.272727a34.909091 34.909091 0 0 0 34.909091-34.909091v-116.363637a34.909091 34.909091 0 1 0-69.818182 0v116.363637a34.909091 34.909091 0 0 0 34.909091 34.909091z m116.363637 46.545454a34.909091 34.909091 0 0 0 34.909091-34.909091v-162.909091a34.909091 34.909091 0 1 0-69.818182 0v162.909091a34.909091 34.909091 0 0 0 34.909091 34.909091z m116.363636 93.090909a34.909091 34.909091 0 0 0 34.909091-34.909091v-256a34.909091 34.909091 0 1 0-69.818182 0v256a34.909091 34.909091 0 0 0 34.909091 34.909091z m-388.096 327.633455a34.909091 34.909091 0 0 0 34.909091-34.909091v-206.661818l74.658909-74.612364a34.909091 34.909091 0 0 0 3.351273-45.474909l-3.351273-3.909818a34.909091 34.909091 0 0 0-49.338182 0l-82.338909 82.292363a34.816 34.816 0 0 0-10.24 25.6 35.467636 35.467636 0 0 0-2.56 13.312v209.454546a34.909091 34.909091 0 0 0 34.909091 34.909091z"  horiz-adv-x="1024" />

    
    <glyph glyph-name="shoujifanzhuan" unicode="&#58941;" d="M597.333 896a85.333 85.333 0 0 0 85.334-85.333v-853.334A85.333 85.333 0 0 0 597.333-128h-512A85.333 85.333 0 0 0 0-42.667V810.667A85.333 85.333 0 0 0 85.333 896h512z m0-64h-512a21.333 21.333 0 0 1-20.992-17.493L64 810.667v-853.334a21.333 21.333 0 0 1 17.493-20.992l3.84-0.341h512a21.333 21.333 0 0 1 20.992 17.493l0.342 3.84V810.667a21.333 21.333 0 0 1-17.494 20.992l-3.84 0.341z m341.334-234.667A85.333 85.333 0 0 0 1024 512v-469.333a85.333 85.333 0 0 0-85.333-85.334H725.333v64h213.334a21.333 21.333 0 0 1 20.992 17.494l0.341 3.84V512a21.333 21.333 0 0 1-17.493 20.992l-3.84 0.341-213.334 0.043v63.957h213.334z m-501.334-512a32 32 0 1 0 0-64h-192a32 32 0 1 0 0 64h192z"  horiz-adv-x="1024" />

    
    <glyph glyph-name="shipinjiankong" unicode="&#58940;" d="M48.730045 477.157941c26.915997 0 48.714995-20.826998 48.714995-46.514996V240.489964l77.473993-0.052 36.587996 35.308997a50.403995 50.403995 0 0 0 68.672994 0c9.209999-8.699999 14.429999-20.570998 14.429998-33.005997a45.491996 45.491996 0 0 0-14.429998-33.005997l-48.715996-46.514995a49.738995 49.738995 0 0 0-36.535996-15.811999l-97.482991 0.051v-228.379978c0-25.687997-21.798998-46.514995-48.714995-46.514995S0.01405-106.610002 0.01405-80.922005V430.642945c0 25.687997 21.799998 46.566995 48.715995 46.566996z m48.714995 186.265982c12.997999 0 25.483998-4.913 34.643997-13.713999l487.257953-465.100955c14.020999-13.304999 18.267998-33.363997 10.694998-50.813995a48.817995 48.817995 0 0 0-45.286995-28.655997 49.892995 49.892995 0 0 0-34.591997 13.918999l-487.309952 465.049954a45.030996 45.030996 0 0 0 0 65.601994 49.943995 49.943995 0 0 0 34.591996 13.764999zM389.841012 895.9999c12.997999 0 25.432998-4.964 34.591997-13.764999l584.689942-558.079945a45.030996 45.030996 0 0 0 12.178999-46.515996 47.896995 47.896995 0 0 0-36.996996-32.544996l-243.629976-46.514996-9.721999-0.46a49.892995 49.892995 0 0 0-34.642997 13.969999L209.05003 677.136921a45.030996 45.030996 0 0 0 0 65.601994L355.250015 882.183901A49.943995 49.943995 0 0 0 389.841012 895.9999z"  horiz-adv-x="1024" />

    
    <glyph glyph-name="dengdaishenpi" unicode="&#58933;" d="M512 896a512 512 0 1 0 0-1024A512 512 0 0 0 512 896z m-36.571429-219.428571a36.571429 36.571429 0 0 1-36.571428-36.571429v-292.571429a36.571429 36.571429 0 0 1 36.571428-36.571428h292.571429a36.571429 36.571429 0 1 1 0 73.142857H512V640a36.571429 36.571429 0 0 1-36.571429 36.571429z"  horiz-adv-x="1024" />

    
    <glyph glyph-name="shenpibohui" unicode="&#58934;" d="M512 896a512 512 0 1 0 0-1024A512 512 0 0 0 512 896zM356.864 590.848a36.571429 36.571429 0 1 1-51.712-51.712L460.214857 384l-155.062857-155.136a36.571429 36.571429 0 1 1 51.712-51.712L512 332.214857l155.136-155.062857a36.571429 36.571429 0 1 1 51.712 51.712L563.785143 384l155.062857 155.062857a36.571429 36.571429 0 1 1-51.712 51.712L512 435.785143z"  horiz-adv-x="1024" />

    
    <glyph glyph-name="shenpiwancheng" unicode="&#58936;" d="M512 896a512 512 0 1 0 0-1024A512 512 0 0 0 512 896z m295.204571-335.433143a36.571429 36.571429 0 0 1-51.785142 0L471.04 276.114286 341.723429 405.430857a36.571429 36.571429 0 0 1-51.785143-51.712l155.209143-155.209143a36.571429 36.571429 0 0 1 51.712 0l310.345142 310.345143a36.571429 36.571429 0 0 1 0 51.712z"  horiz-adv-x="1024" />

    
    <glyph glyph-name="xiaoxi" unicode="&#58928;" d="M492.3904 882.7904a494.3872 494.3872 0 0 0 365.5168-138.752 496.4352 496.4352 0 0 0 153.2928-359.7312c0-121.5488-43.3664-236.544-122.88-327.5776l-12.4416-13.7216v-39.68a119.296 119.296 0 0 0-110.4896-118.272l-8.0384-0.256H511.6928a494.08 494.08 0 0 0-359.8336 153.4464C57.0368 137.5744 7.6288 267.52 13.2096 403.5072 23.3984 662.9376 233.0624 872.6016 492.4416 882.7392z m18.8416-76.3904l-15.7696-0.3584c-219.3408-8.6016-396.9024-186.1632-405.504-405.6064-4.7616-115.2 36.9664-224.8192 117.4528-309.1456a417.28 417.28 0 0 1 304.2816-129.6896h245.6576a42.496 42.496 0 0 1 41.728 41.728v71.1168l11.264 11.264a419.1232 419.1232 0 0 1 124.0576 298.5984 419.6352 419.6352 0 0 1-129.8432 304.4352 417.6384 417.6384 0 0 1-309.0944 117.248zM230.4 428.3392a51.2 51.2 0 1 0 51.2-88.6784 51.2 51.2 0 0 0-51.2 88.6784z m256 0a51.2 51.2 0 1 0 51.2-88.6784 51.2 51.2 0 0 0-51.2 88.6784z m256 0a51.2 51.2 0 1 0 51.2-88.6784 51.2 51.2 0 0 0-51.2 88.6784z"  horiz-adv-x="1024" />

    
    <glyph glyph-name="zhuanhuanzhong" unicode="&#58927;" d="M194.047757 770.176157l2.133331-0.170666a42.922613 42.922613 0 0 0 33.023959-21.119974l85.333226-147.797148a42.666613 42.666613 0 1 0-73.898574-42.666614L183.893103 656.768299A424.959469 424.959469 0 0 1 85.333227 384.00064c0-235.647705 191.018428-426.666133 426.666133-426.666133a426.3248 426.3248 0 0 1 165.589126 33.279958 42.666613 42.666613 0 0 0 33.151959-78.591902A508.586031 508.586031 0 0 0 511.99936-127.99872C229.247713-127.99872 0 101.248993 0 384.00064c0 143.786487 59.605259 278.058319 162.559797 374.271532 2.474664 2.346664 5.247993 4.437328 8.362656 6.229326l0.426666 0.255999a42.32528 42.32528 0 0 0 1.663998 0.853333l-2.090664-1.109332c1.706665 0.981332 3.413329 1.834664 5.16266 2.559997l1.194665 0.426666a36.394621 36.394621 0 0 0 3.498663 1.151998l1.365331 0.341333a32.981292 32.981292 0 0 0 3.839996 0.767999l0.511999 0.042667a38.655952 38.655952 0 0 0 7.55199 0.426666zM511.99936 896c282.751647 0 511.99936-229.247713 511.99936-511.99936a510.250029 510.250029 0 0 0-152.917142-364.97021 42.666613 42.666613 0 0 0-49.493272-7.509324 42.83728 42.83728 0 0 0-18.51731 17.194645l-85.333227 147.797148a42.666613 42.666613 0 0 0 73.898575 42.666614l56.575929-97.919878A424.703469 424.703469 0 0 1 938.665493 384.00064c0 235.647705-191.018428 426.666133-426.666133 426.666133-44.842611 0-88.746556-6.911991-130.474504-20.309308A42.666613 42.666613 0 0 0 355.412889 871.594697 511.700694 511.700694 0 0 0 511.99936 896z"  horiz-adv-x="1024" />

    
    <glyph glyph-name="xiangji" unicode="&#58925;" d="M723.316364 896a93.090909 93.090909 0 0 0 73.728-36.212364l105.332363-136.564363 33.047273-42.821818H1117.090909a93.090909 93.090909 0 0 0 93.090909-93.09091V-34.909091a93.090909 93.090909 0 0 0-93.090909-93.090909H93.090909a93.090909 93.090909 0 0 0-93.090909 93.090909V587.310545a93.090909 93.090909 0 0 0 93.090909 93.09091h181.992727l32.954182 43.147636L412.113455 859.461818A93.090909 93.090909 0 0 0 486.027636 896h237.288728zM605.090909 541.556364c-133.678545 0-242.036364-105.797818-242.036364-236.311273s108.357818-236.311273 242.036364-236.311273c133.678545 0 242.036364 105.797818 242.036364 236.311273S738.769455 541.556364 605.090909 541.556364z"  horiz-adv-x="1210" />

    
    <glyph glyph-name="dingwei" unicode="&#58926;" d="M512 896c238.907077 0 433.230769-200.034462 433.230769-445.912615 0-358.872615-400.541538-569.265231-404.558769-571.352616l-4.214154-1.772307c-6.104615-2.087385-14.493538-4.962462-24.418461-4.962462-10.003692 0-18.392615 2.875077-24.497231 4.962462l-4.214154 1.772307C479.310769-119.177846 78.769231 91.214769 78.769231 450.087385 78.769231 695.965538 273.132308 896 512 896z m0-238.946462c-110.434462 0-199.955692-91.687385-199.955692-204.8 0-113.112615 89.521231-204.8 199.955692-204.8s199.955692 91.687385 199.955692 204.8c0 113.112615-89.521231 204.8-199.955692 204.8z"  horiz-adv-x="1024" />

    
    <glyph glyph-name="guanbi" unicode="&#58924;" d="M1024 384c0-282.7776-229.2224-512-512-512S0 101.2224 0 384 229.2224 896 512 896s512-229.2224 512-512z m-76.8 0a435.2 435.2 0 1 1-870.4 0 435.2 435.2 0 0 1 870.4 0zM307.2 375.1424c0-14.6432-4.3008-27.136-14.336-36.9152-9.3184-9.728-21.504-14.6432-36.5056-14.6432-15.0528 0-27.1872 5.632-37.2224 15.36a51.5072 51.5072 0 0 0-14.336 36.1984c0 13.9264 5.0176 26.4704 15.0528 36.2496a50.432 50.432 0 0 0 36.5056 14.592c15.0528 0 27.1872-4.864 36.5056-14.592a48.64 48.64 0 0 0 14.336-36.2496z m256 0c0-14.6432-4.3008-27.136-14.336-36.9152-9.3184-9.728-21.504-14.6432-36.5056-14.6432-15.0528 0-27.1872 5.632-37.2224 15.36a51.5072 51.5072 0 0 0-14.336 36.1984c0 13.9264 5.0176 26.4704 15.0528 36.2496a50.432 50.432 0 0 0 36.5056 14.592c15.0528 0 27.1872-4.864 36.5056-14.592a48.64 48.64 0 0 0 14.336-36.2496z m232.0384 0c0-14.6432-4.3008-27.136-14.336-36.9152-9.2672-9.728-21.504-14.6432-36.5056-14.6432-15.0528 0-27.1872 5.632-37.2224 15.36a51.5072 51.5072 0 0 0-14.336 36.1984c0 13.9264 5.0176 26.4704 15.0528 36.2496a50.432 50.432 0 0 0 36.5056 14.592c15.0528 0 27.2384-4.864 36.5056-14.592a48.64 48.64 0 0 0 14.336-36.2496z"  horiz-adv-x="1024" />

    
    <glyph glyph-name="baoyan" unicode="&#58923;" d="M750.907077 343.788308c128.984615 0 233.708308-105.550769 233.708308-235.913846C984.615385-22.409846 880.009846-128 750.907077-128c-129.142154 0-233.747692 105.550769-233.747692 235.913846 0 130.284308 104.723692 235.874462 233.747692 235.874462zM478.247385 896c21.543385 0 38.912-17.644308 38.912-39.266462h67.308307c40.172308 0 73.412923-28.238769 79.163077-64.984615h103.148308c37.100308 0 67.190154-30.956308 67.072-69.12v-326.144a290.225231 290.225231 0 0 1-96.768 16.620308c-163.643077 0-296.448-136.664615-296.448-304.994462 0-72.467692 24.536615-138.830769 65.378461-191.133538H106.614154c-37.021538 0-67.190154 30.838154-67.190154 69.12v736.492307c0 38.203077 30.089846 69.12 67.190154 69.12h118.862769c5.710769 36.785231 38.990769 65.024 79.163077 65.024h67.150769c0 21.740308 17.486769 39.266462 38.912 39.266462h67.584z m429.449846-675.603692a30.72 30.72 0 0 1-43.756308 0l-157.420308-158.877539-68.686769 69.316923a30.72 30.72 0 0 1-43.756308 0 31.389538 31.389538 0 0 1 0-44.189538l90.505847-91.372308a30.72 30.72 0 0 1 21.93723-9.058461 30.72 30.72 0 0 1 21.937231 9.058461l179.239385 181.011692a31.271385 31.271385 0 0 1 0 44.11077z m-543.389539-33.35877H192.433231c-23.630769 0-42.771692-19.652923-42.771693-43.992615 0-24.221538 19.140923-43.953231 42.771693-43.953231H364.307692c23.630769 0 42.771692 19.613538 42.771693 43.953231 0 24.260923-19.219692 43.992615-42.771693 43.992615z m108.701539 216.339693H192.433231c-23.630769 0-42.771692-19.613538-42.771693-43.953231 0-24.339692 19.259077-43.992615 42.771693-43.992615h280.654769c23.512615 0 42.692923 19.652923 42.692923 43.992615 0 24.221538-19.180308 43.953231-42.771692 43.953231z m199.168 216.260923H192.433231c-23.630769 0-42.771692-19.613538-42.771693-43.953231 0-24.339692 19.259077-43.992615 42.771693-43.992615h479.744c23.630769 0 42.771692 19.652923 42.771692 43.992615 0 24.221538-19.140923 43.953231-42.771692 43.953231zM456.467692 817.506462h-23.827692a57.028923 57.028923 0 0 1-41.668923-36.706462 57.265231 57.265231 0 0 1 53.484308-77.115077c31.547077 0 57.068308 25.757538 57.068307 57.580308 0 11.145846-3.150769 21.661538-8.664615 30.444307l-2.087385 3.308308a57.107692 57.107692 0 0 1-34.304 22.488616z"  horiz-adv-x="1024" />

    
    <glyph glyph-name="lixian" unicode="&#58922;" d="M764.813941 711.110179c131.75452 0 238.534846-107.519881 244.67884-241.720621l0.284444-12.231097v-316.984537c0-135.736738-102.911886-247.238836-233.01663-253.667273l-11.946654-0.284445H259.186059c-131.75452 0-238.534846 107.519881-244.67884 241.720621l-0.284444 12.231097V457.158461c0 139.832734 109.226545 253.951718 244.963284 253.951718a42.666619 42.666619 0 0 0 5.745771-84.935017l-5.745771-0.398222c-84.593684 0-154.453162-69.802589-159.345601-158.719823l-0.284444-9.898656v-316.984537c0-90.168789 66.84437-163.27093 150.243388-168.334035l9.386657-0.284444h505.627882c84.593684 0 154.453162 69.802589 159.345601 158.719824l0.284444 9.898655V457.158461c0 90.168789-66.84437 163.27093-150.243388 168.334035l-9.386657 0.284444a42.666619 42.666619 0 0 0 0 85.333239zM520.931546 895.998862a42.666619 42.666619 0 0 0 42.666619-42.666619l-0.056889-607.515769 153.770496 153.656718a42.666619 42.666619 0 0 0 55.523494 4.152884l4.778661-4.152884a42.666619 42.666619 0 0 0 4.152884-55.523494l-4.152884-4.778662-221.240643-221.297531a43.406174 43.406174 0 0 0-1.137776-1.137777 42.666619 42.666619 0 0 0-63.544819-5.631994 42.439064 42.439064 0 0 0-8.874657 6.826659L261.575389 339.17103599999996a42.666619 42.666619 0 1 0 60.359044 60.302156l156.273605-156.216716V853.332243a42.666619 42.666619 0 0 0 42.666619 42.666619z"  horiz-adv-x="1024" />

    
    <glyph glyph-name="tishi1" unicode="&#58921;" d="M512-128C229.2224-128 0 101.2224 0 384S229.2224 896 512 896s512-229.2224 512-512-229.2224-512-512-512z m0 76.8a435.2 435.2 0 1 1 0 870.4 435.2 435.2 0 0 1 0-870.4z m14.9504 716.8c52.4288 0 95.0272-13.9264 127.7952-43.4176 32.768-28.672 49.152-67.9936 49.152-117.1456 0-40.1408-10.6496-73.728-31.1296-99.9424-7.3728-9.0112-30.3104-30.3104-68.8128-63.8976a136.0384 136.0384 0 0 1-34.4064-42.5984c-9.0112-16.384-13.1072-34.4064-13.1072-54.0672v-13.9264H468.7872v13.9264c0 30.3104 4.9152 56.5248 16.384 77.824 10.6496 22.9376 41.7792 56.5248 92.5696 101.5808l13.9264 15.5648c14.7456 18.8416 22.9376 38.5024 22.9376 59.8016 0 28.672-8.192 50.7904-23.7568 67.1744-16.384 16.384-40.1408 24.576-69.632 24.576-36.864 0-63.8976-11.4688-80.2816-35.2256-14.7456-19.6608-22.1184-47.5136-22.1184-83.5584H332.8c0 59.8016 17.2032 106.496 51.6096 140.9024 34.4064 35.2256 81.92 52.4288 142.5408 52.4288z m-13.568-479.232c14.6432 0 27.136-4.3008 36.9152-14.336 9.728-9.3184 14.6432-21.504 14.6432-36.5056 0-15.0528-5.632-27.1872-15.36-37.2224-9.728-9.3184-22.272-14.336-36.1984-14.336a49.2544 49.2544 0 0 0-36.2496 15.0528 50.432 50.432 0 0 0-14.592 36.5056c0 15.0528 4.864 27.1872 14.592 36.5056a48.64 48.64 0 0 0 36.2496 14.336z"  horiz-adv-x="1024" />

    
    <glyph glyph-name="jinhangzhong" unicode="&#58918;" d="M512 896a512 512 0 1 0 0-1024A512 512 0 0 0 512 896zM219.429 457.143a73.143 73.143 0 1 1 0-146.286 73.143 73.143 0 0 1 0 146.286z m292.571 0a73.143 73.143 0 1 1 0-146.286 73.143 73.143 0 0 1 0 146.286z m292.571 0a73.143 73.143 0 1 1 0-146.286 73.143 73.143 0 0 1 0 146.286z"  horiz-adv-x="1024" />

    
    <glyph glyph-name="yiwancheng" unicode="&#58920;" d="M512 896a512 512 0 1 0 0-1024A512 512 0 0 0 512 896z m322.194-278.09c-184.247-101.887-402.87-284.379-402.87-284.379L313.49 440.174 175.91 335.872l243.2-229.961s159.597 227.62 415.085 443.246z"  horiz-adv-x="1024" />

    
    <glyph glyph-name="wenduji" unicode="&#58916;" d="M511.9984 896a127.9992 127.9992 0 0 0 127.9992-127.9992l0.064-418.301386a255.9984 255.9984 0 1 0-256.0624 0V768.0008a127.9992 127.9992 0 0 0 127.9992 127.9992z m0-63.9996a63.9996 63.9996 0 0 1-63.551603-56.511647L447.9988 768.0008v-63.9996h31.9998a31.9998 31.9998 0 0 0 0-63.9996H447.9988v-63.9996h31.9998a31.9998 31.9998 0 0 0 0-63.9996H447.9988v-63.9996h31.9998a31.9998 31.9998 0 0 0 0-63.9996h-32.0638v-71.167555l-31.8718-18.495885a191.9988 191.9988 0 1 1 202.750732-6.783957L607.9978 294.40376l-31.9358 18.495884L575.998 768.0008a63.9996 63.9996 0 0 1-63.9996 63.9996z m127.9992-703.9956a127.9992 127.9992 0 0 0-255.678402-9.59994L383.9992 128.0048h255.9984z"  horiz-adv-x="1024" />

    
    <glyph glyph-name="triangle-right" unicode="&#59005;" d="M270.387 868.727l484.233-485.222-485.222-484.233z"  horiz-adv-x="1024" />

    
    <glyph glyph-name="gengduo" unicode="&#58915;" d="M1039.058824-7.529412a45.176471 45.176471 0 1 0 0-90.352941H45.176471a45.176471 45.176471 0 1 0 0 90.352941h993.882353z m0 451.764706a45.176471 45.176471 0 1 0 0-90.352941H45.176471a45.176471 45.176471 0 0 0 0 90.352941h993.882353z m0 451.764706a45.176471 45.176471 0 1 0 0-90.352941H45.176471a45.176471 45.176471 0 0 0 0 90.352941h993.882353z"  horiz-adv-x="1084" />

    
    <glyph glyph-name="wodeguanzhu1" unicode="&#58910;" d="M985.6-25.6a38.4 38.4 0 1 0 0-76.8h-486.4a38.4 38.4 0 1 0 0 76.8h486.4zM507.5968 849.8688l6.656-9.216 79.7184-121.9584 135.4752-41.3696a127.4368 127.4368 0 0 0 79.36-72.3968l4.352-11.776c11.264-35.8912 6.5536-74.8544-12.5952-106.8544l-6.912-10.3936-87.04-117.4528 4.3008-149.3504c0.768-37.632-14.336-73.728-41.5744-98.9696l-9.5232-7.9872c-30.72-23.1424-69.632-30.9248-106.0864-21.3504l-12.032 3.84-132.2496 49.4592-131.5328-49.0496a120.5248 120.5248 0 0 0-32.512-7.5264l-11.1616-0.512-13.312 0.7168a125.8496 125.8496 0 0 0-61.7472 24.576 130.2016 130.2016 0 0 0-50.5856 94.72l-0.3072 12.5952 4.1984 148.8384-87.04 117.6064a131.4304 131.4304 0 0 0-22.5792 104.96l3.1744 12.0832a128.3072 128.3072 0 0 0 72.192 79.9744l11.7248 4.3008 135.168 41.3696 79.7696 121.856c46.1824 70.6048 151.296 73.728 202.752 9.216zM985.6 204.8a38.4 38.4 0 1 0 0-76.8h-179.2a38.4 38.4 0 1 0 0 76.8h179.2zM372.8896 803.4816l-3.6864-4.9152-94.976-145.1008-157.952-48.2304-8.192-2.9184c-11.6224-4.864-21.0432-14.1824-25.8048-23.8592l-1.9968-4.864-2.304-8.4992a54.784 54.784 0 0 1 5.6832-37.888l3.5328-5.4784 102.8096-138.9056-4.9152-171.264 0.1024-9.0624c1.1776-15.9744 8.704-30.1056 19.968-38.7072a56.32 56.32 0 0 1 16.896-8.704l3.072-0.6656 9.7792-0.512 3.584 0.0512a43.6224 43.6224 0 0 1 8.2432 1.536l4.352 1.536 158.4128 59.0336 155.5456-58.2656 8.192-2.7136a47.616 47.616 0 0 1 33.0752 3.2768l4.096 2.56 6.7584 5.5296c9.472 8.7552 15.4112 20.992 16.7424 33.9456l0.256 6.5024-5.12 175.9232 100.6592 135.5776 4.9152 7.3216c6.8608 11.4688 9.2672 24.9856 7.68 35.7376l-1.1776 5.12-3.0208 8.3968a51.2 51.2 0 0 1-25.3952 26.6752l-5.632 2.2016-162.1504 49.5104-92.8768 142.2336-4.864 6.8096-3.7888 4.096c-19.2 18.0736-53.0432 16.6912-70.5024-3.072zM985.6 435.2a38.4 38.4 0 1 0 0-76.8h-76.8a38.4 38.4 0 1 0 0 76.8h76.8z"  horiz-adv-x="1024" />

    
    <glyph glyph-name="shuaixiang" unicode="&#58908;" d="M1484.8 281.6a204.8 204.8 0 1 0 0-409.6 204.8 204.8 0 0 0 0 409.6zM1331.2 883.2a243.2 243.2 0 0 0 242.944-232.0896L1574.4 640v-268.0832a38.4 38.4 0 0 0-76.4416-5.1712l-0.3584 5.1712V640a166.4 166.4 0 0 1-156.9792 166.144L1331.2 806.4H256a166.4 166.4 0 0 1-166.144-156.9792L89.6 640v-460.8a166.4 166.4 0 0 1 156.9792-166.144L256 12.8h960.8192a38.4 38.4 0 0 0 5.2224-76.4416l-5.2224-0.3584H256a243.2 243.2 0 0 0-242.944 232.0896L12.8 179.2V640A243.2 243.2 0 0 0 244.8896 882.944L256 883.2h1075.2z m267.5712-748.032l-172.3392-172.3392a128 128 0 0 1 172.288 172.288zM1484.8 204.8a128 128 0 0 1-113.1008-188.0064l173.056 173.1072A127.4368 127.4368 0 0 1 1484.8 204.8z m-295.8336 77.1072c45.056-32.6656 82.2272-64.768 112.64-96.3072l-38.2976-38.2976c-25.9072 30.976-62.5152 64.2048-109.824 100.2496z m-27.0336 191.488v-98.56c-2.816-60.8256-19.712-110.3872-50.176-147.5584-29.7984-33.792-78.2336-59.6992-145.8176-78.848l-29.2864 45.568c65.3312 18.0736 110.3872 40.6016 134.0416 67.584 22.528 29.3376 35.4816 67.072 37.7344 113.2544V473.3952h53.504zM678.4 651.3664v-331.1616c0-34.3552-19.1488-51.8144-56.8832-51.8144h-57.4464l-14.6432 50.688c20.2752-1.6896 38.8608-2.816 55.7568-2.816 12.3904 0 19.1488 7.8848 19.1488 23.04v32.1536H503.296v-131.2256c0-18.0224 9.0112-27.0336 27.5968-27.0336h131.7888c12.9536 0 22.528 2.816 28.16 7.8848 5.632 5.0688 9.0112 23.04 10.7008 54.6304l49.5616-16.384c-3.9424-45.568-11.264-73.216-21.4016-82.7392-10.7008-9.0112-29.8496-13.5168-58.0096-13.5168h-152.6272c-46.1824 0-69.2736 23.04-69.2736 69.2736v139.1104H334.8992c-2.816-86.7328-25.344-157.184-67.0208-211.7632l-40.5504 36.608c35.4816 48.9984 53.504 110.9504 54.6304 185.856V651.3664h396.4928z m283.5456-31.5392v-51.8144H901.12v-237.6704a1355.264 1355.264 0 0 1 63.0784 23.04v-53.4528c-49.5616-20.2752-106.496-39.424-170.6496-56.8832l-15.7696 52.9408c23.6544 5.632 46.7456 11.776 69.2736 18.0224v253.952h-62.5152V619.8784h177.408zM1295.36 650.752v-51.8144h-131.2256c-2.816-16.896-6.1952-32.6656-9.5744-47.872h118.272v-272.5888h-51.8144V501.5552h-168.448v-223.0272h-51.2V551.1168h100.2496c4.5056 15.7696 7.8848 31.5392 10.1376 47.872H979.968V650.752h315.392zM449.792 485.7856H335.4624v-64.2048h114.3296V485.7856z m174.592 0H503.296v-64.2048h121.088V485.7856z m0 114.3296H503.296v-63.6416h121.088V600.064z m-174.592 0H335.4624v-63.6416h114.3296V600.064z"  horiz-adv-x="1689" />

    
    <glyph glyph-name="clock" unicode="&#58907;" d="M512 896a512 512 0 1 0 0-1024A512 512 0 0 0 512 896z m0-109.714286a402.285714 402.285714 0 1 1 0-804.571428 402.285714 402.285714 0 0 1 0 804.571428z m-12.507429-168.96a54.857143 54.857143 0 0 0 54.857143-54.857143v-160.329142l120.539429-120.612572a54.857143 54.857143 0 1 0-77.531429-77.531428L467.894857 333.312 463.725714 337.91999999999996a54.710857 54.710857 0 0 0-19.090285 41.691429v182.857142a54.857143 54.857143 0 0 0 54.857142 54.857143z"  horiz-adv-x="1024" />

    
    <glyph glyph-name="chakangengduo" unicode="&#58896;" d="M239.2064 856.3712l6.2464-6.8608 284.5696-372.224a153.6 153.6 0 0 0 8.9088-173.4656l-8.9088-13.1072-284.5696-372.224a51.2 51.2 0 0 0-86.2208 54.272l4.9152 7.8848L448.512 352.8704a51.2 51.2 0 0 1 5.12 53.9648l-5.12 8.192L164.1472 787.456a51.2 51.2 0 0 0 75.0592 69.0176z m307.2 0l6.2464-6.8608 284.5696-372.224a153.6 153.6 0 0 0 8.9088-173.4656l-8.9088-13.1072-284.5696-372.224a51.2 51.2 0 0 0-86.2208 54.272l4.9152 7.8848L755.712 352.8704a51.2 51.2 0 0 1 5.12 53.9648l-5.12 8.192L471.3472 787.456a51.2 51.2 0 0 0 75.0592 69.0176z"  horiz-adv-x="1024" />

    
    <glyph glyph-name="xingxing" unicode="&#58897;" d="M482.24 35.84L270.72-75.2a64 64 0 0 0-92.8 67.456L224 260.8 28.8 451.008a64 64 0 0 0 35.52 109.12l269.696 39.232L454.592 843.712a64 64 0 0 0 114.816 0l120.576-244.352 269.696-39.232a64 64 0 0 0 35.456-109.12L800 260.8l46.08-268.608a64 64 0 0 0-92.864-67.456L541.76 35.84a64 64 0 0 1-59.52 0z"  horiz-adv-x="1024" />

    
    <glyph glyph-name="yiguanzhu" unicode="&#58900;" d="M580.715789 858.866526c15.952842-7.868632 29.264842-19.994947 38.480843-35.031579l4.311579-7.706947 108.759578-220.267789 243.280843-35.301053a94.315789 94.315789 0 0 0 80.572631-99.166316l-0.808421-7.706947a94.315789 94.315789 0 0 0-21.504-47.535158l-6.03621-6.467369-175.912421-171.331368 5.658947-33.091368a40.421053 40.421053 0 0 0-27.648-45.379369l-5.335579-1.293474a40.421053 40.421053 0 0 0-45.379368 27.648l-1.293474 5.389474-12.880842 74.967579 206.416842 201.027369a13.473684 13.473684 0 0 1-4.473263 22.150736l-3.018106 0.808421-285.264842 41.391158-127.622737 258.317474a13.473684 13.473684 0 0 1-22.096842 3.018105l-2.048-3.018105L399.252211 521.970526l-285.264843-41.391158a13.473684 13.473684 0 0 1-9.701052-20.156631l2.209684-2.856421 206.416842-200.973474-48.720842-283.863579a13.473684 13.473684 0 0 1 16.168421-15.413895l3.341474 1.239579 211.375158 111.023158a40.421053 40.421053 0 0 0 42.307368-68.715789l-4.688842-2.910316-211.375158-111.023158a94.315789 94.315789 0 0 0-137.916632 90.704842l1.077895 8.784842 41.498948 241.933474L50.122105 399.629474A94.315789 94.315789 0 0 0 42.307368 526.282105l6.036211 6.790737a94.315789 94.315789 0 0 0 45.271579 25.869474l8.730947 1.670737 243.226948 35.301052 108.867368 220.26779A94.315789 94.315789 0 0 0 580.661895 858.812632z m472.495158-658.701473a40.421053 40.421053 0 0 0 0-57.128421l-247.70021-247.754106a40.421053 40.421053 0 0 0-58.47579 1.185685l-133.389473 133.389473a40.421053 40.421053 0 0 0 57.182315 57.128421l106.010948-106.010947 219.189895 219.189895a40.421053 40.421053 0 0 0 57.128421 0z"  horiz-adv-x="1077" />

    
    <glyph glyph-name="wodeguanzhu" unicode="&#58902;" d="M806.7072 392.0896l4.4032-6.0416 52.2752-80.0256 88.9344-27.136c23.552-7.3216 42.496-24.832 52.0704-47.5136l2.8672-7.7312c7.3728-23.552 4.2496-49.152-8.2944-70.144l-4.5568-6.8096-57.088-77.056 2.816-97.9968c0.512-24.7296-9.3696-48.384-27.2896-64.9728l-6.2464-5.2736a81.2032 81.2032 0 0 0-69.632-13.9776l-7.8848 2.56-86.784 32.4096-86.3232-32.2048a79.104 79.104 0 0 0-21.3504-4.9152l-7.2704-0.3584-8.7552 0.512a82.5856 82.5856 0 0 0-40.5504 16.0768 85.504 85.504 0 0 0-33.1776 62.1568l-0.2048 8.2944 2.7648 97.6896-57.1392 77.1584a86.272 86.272 0 0 0-14.848 68.9152l2.0992 7.936c7.4752 23.7568 24.7808 42.9568 47.36 52.48l7.68 2.816 88.7808 27.136 52.3264 79.9744c30.3104 46.336 99.328 48.384 133.0176 6.0416zM788.48 883.2c119.9104 0 217.0368-98.304 222.464-220.928l0.256-10.9056v-257.024a38.4 38.4 0 0 0-76.4416-5.2224L934.4 394.24V460.8H89.6v-292.9664c0-82.944 61.1328-150.0672 137.3696-154.7776l8.5504-0.256h217.088a38.4 38.4 0 0 0 5.1712-76.4416l-5.2224-0.3584H235.52c-119.9104 0-217.0368 98.304-222.464 220.928l-0.256 10.9056V651.3664C12.8 775.3728 106.496 877.2096 225.024 882.944L235.52 883.2h552.96z m-48.7424-538.0096l-1.7408-1.1776-67.584-103.3216-115.2-35.1744c-1.8432-0.5632-3.584-2.3552-4.4032-4.9152a9.5232 9.5232 0 0 1 0-5.6832l1.28-2.5088 72.96-98.4576-3.584-123.904c-0.1024-3.2256 1.2288-5.9904 2.816-7.168l1.536-0.8704 1.4848-0.256 1.4336 0.256 113.664 42.3424 113.664-42.496c1.3312-0.512 2.7648-0.3072 4.1984 0.8192a8.192 8.192 0 0 1 2.7648 4.2496l0.3584 2.816-3.584 124.2112 72.8064 98.3552a9.4208 9.4208 0 0 1 1.3824 8.2944 8.2944 8.2944 0 0 1-2.56 3.9424l-1.6896 0.9216-115.3536 35.2256-67.584 103.3216c-1.024 1.5872-4.7104 1.9968-7.0656 1.1776zM788.48 806.4H235.52c-77.312 0-141.2096-64.1536-145.664-145.92l-0.256-9.1136V537.6h844.8V651.3664c0 82.944-61.1328 150.0672-137.3696 154.7776L788.48 806.4zM371.2 691.2a38.4 38.4 0 0 0 0-76.8h-128a38.4 38.4 0 0 0 0 76.8h128z"  horiz-adv-x="1024" />

    
    <glyph glyph-name="shaixuan1" unicode="&#58903;" d="M837.345748 895.994311a113.777146 113.777146 0 0 0 104.44742-65.990744 117.930011 117.930011 0 0 0-15.189249-124.017089l-231.764046-288.99395v-428.655397c0-42.66643-22.755429-81.407548-58.879673-100.806551-17.066572-9.671057-36.067355-15.53058-55.068138-15.53058a116.052689 116.052689 0 0 0-60.813885 17.464792L368.128799-13.653969c-34.190032 21.333215-53.190816 58.19701-53.190815 98.929229V416.992528L83.173938 705.986478a117.930011 117.930011 0 0 0-15.189249 124.017089A113.037594 113.037594 0 0 0 170.554786 895.994311h666.734074z m0-85.332859H170.554786a27.761624 27.761624 0 0 1-25.258527-16.725241c-4.551086-9.671057-3.9822-20.934995 1.365326-30.150943l3.071983-4.437309 250.537275-312.375153v-361.640658c0-10.35372 3.299537-18.261232 9.614169-23.8932l4.152866-3.071983 150.64094-96.141688a30.833606 30.833606 0 0 1 16.213244-4.892418c2.901317 0 7.56618 1.365326 14.677252 5.347526a27.761624 27.761624 0 0 1 13.482591 20.081666l0.455109 5.57508V446.972806l250.992383 312.88715a32.597152 32.597152 0 0 1 3.9822 34.133144 27.875401 27.875401 0 0 1-21.958989 16.32702L837.402637 810.661452z"  horiz-adv-x="1024" />

    
    <glyph glyph-name="logs" unicode="&#58937;" d="M791.272727 686.545455v37.236363 111.709091H223.418182c-60.509091 0-111.709091-51.2-111.709091-111.709091V58.18181800000002s0-125.672727 125.672727-125.672727h679.563637V686.545455H791.272727zM223.418182 761.018182h493.381818v-74.472727H223.418182c-18.618182 0-37.236364 18.618182-37.236364 37.236363s13.963636 37.236364 37.236364 37.236364zM837.818182 6.981817999999976H232.727273c-51.2 0-46.545455 51.2-46.545455 51.2V612.072727h656.290909v-605.090909z m-176.872727 451.490909H283.927273V384h377.018182V458.472727zM512 281.6H283.927273v-74.472727H512v74.472727z"  horiz-adv-x="1024" />

    
    <glyph glyph-name="gongchenganli-pinglun" unicode="&#58935;" d="M889.6 812.8H134.4C83.2 812.8 32 768 32 710.4v-524.8c0-57.6 44.8-102.4 102.4-102.4h224c12.8 0 25.6-6.4 32-19.2l38.4-64c6.4-12.8 19.2-25.6 32-32 19.2-12.8 32-12.8 51.2-12.8 32 0 70.4 19.2 89.6 51.2l38.4 64c6.4 12.8 19.2 19.2 32 19.2H896c57.6 0 102.4 44.8 102.4 102.4V710.4c-6.4 57.6-57.6 102.4-108.8 102.4z m32-627.2c0-19.2-12.8-32-32-32h-224c-38.4 0-70.4-19.2-89.6-51.2l-38.4-64c-12.8-12.8-32-19.2-44.8-12.8-6.4 0-6.4 6.4-12.8 12.8l-38.4 64c-19.2 32-51.2 51.2-89.6 51.2H134.4c-19.2 0-32 12.8-32 32V710.4c0 19.2 12.8 32 32 32h748.8c19.2 0 32-12.8 32-32v-524.8zM716.8 505.6c-19.2 0-32-12.8-32-32v-70.4c0-19.2 12.8-32 32-32s32 12.8 32 32v64c0 19.2-12.8 38.4-32 38.4zM512 505.6c-19.2 0-32-12.8-32-32v-70.4c0-19.2 12.8-38.4 32-38.4s32 19.2 32 38.4v64c0 19.2-12.8 38.4-32 38.4zM307.2 505.6c-19.2 0-32-12.8-32-32v-70.4c0-19.2 12.8-32 32-32s32 12.8 32 32v64c0 19.2-12.8 38.4-32 38.4z"  horiz-adv-x="1024" />

    
    <glyph glyph-name="upload-cloud" unicode="&#58932;" d="M819.2 568.3199999999999c-20.48 61.44-51.2 112.64-102.4 153.6-61.44 51.2-133.12 71.68-204.8 71.68s-143.36-20.48-204.8-71.68c-51.2-40.96-81.92-92.16-102.4-153.6-122.88-30.72-204.8-133.12-204.8-256 0-71.68 30.72-133.12 81.92-184.32s112.64-71.68 184.32-71.68c20.48 0 40.96 20.48 40.96 40.96s-20.48 51.2-40.96 51.2C174.08 148.48000000000002 92.16 230.39999999999998 92.16 322.55999999999995c0 81.92 61.44 163.84 153.6 174.08h30.72l10.24 30.72C307.2 629.76 399.36 701.44 512 701.44s204.8-71.68 225.28-184.32l10.24-30.72h30.72c81.92-10.24 153.6-81.92 153.6-174.08 0-92.16-81.92-174.08-174.08-174.08-20.48 10.24-40.96-10.24-40.96-40.96s20.48-40.96 40.96-40.96c71.68 0 133.12 30.72 184.32 71.68 51.2 51.2 81.92 112.64 81.92 184.32 0 122.88-81.92 225.28-204.8 256zM542.72 414.72c-20.48 20.48-51.2 20.48-71.68 0L348.16 291.84000000000003c-10.24 0-20.48-10.24-20.48-30.72 0-10.24 0-20.48 10.24-30.72 20.48-20.48 51.2-20.48 61.44 0l61.44 51.2v-266.24c0-20.48 20.48-40.96 51.2-40.96 20.48 0 40.96 20.48 40.96 40.96V281.6l61.44-51.2c20.48-20.48 51.2-20.48 61.44 0 10.24 10.24 10.24 20.48 10.24 30.72 0 10.24 0 20.48-10.24 30.72L542.72 414.72z"  horiz-adv-x="1024" />

    
    <glyph glyph-name="icon-jiguangshice" unicode="&#58931;" d="M512 888.685714C234.057143 888.685714 7.314286 661.942857 7.314286 384s226.742857-504.685714 504.685714-504.685714 504.685714 226.742857 504.685714 504.685714S789.942857 888.685714 512 888.685714z m124.342857-599.771428c-14.628571-14.628571-36.571429-14.628571-51.2 0l-36.571428 36.571428v-190.171428c0-14.628571-14.628571-29.257143-29.257143-29.257143s-29.257143 14.628571-29.257143 29.257143V318.171429l-43.885714-29.257143c-14.628571-14.628571-36.571429-14.628571-43.885715 0-7.314286 0-14.628571 7.314286-14.628571 21.942857 0 7.314286 0 14.628571 7.314286 21.942857l95.085714 87.771429c14.628571 14.628571 36.571429 14.628571 51.2 0l95.085714-87.771429c0-7.314286 7.314286-14.628571 7.314286-21.942857 0-14.628571-7.314286-21.942857-7.314286-21.942857z m190.171429-80.457143c-36.571429-36.571429-80.457143-51.2-131.657143-51.2-21.942857 0-36.571429 14.628571-36.571429 29.257143s14.628571 29.257143 29.257143 29.257143c65.828571 0 124.342857 51.2 124.342857 124.342857 0 58.514286-43.885714 117.028571-109.714285 124.342857h-21.942858v29.257143c-14.628571 73.142857-87.771429 131.657143-160.914285 131.657143-80.457143 0-146.285714-51.2-160.914286-131.657143l-7.314286-29.257143h-21.942857C263.314286 457.142857 219.428571 405.942857 219.428571 340.114286c0-65.828571 58.514286-124.342857 124.342858-124.342857 14.628571 0 29.257143-14.628571 29.257142-29.257143s-14.628571-29.257143-29.257142-29.257143c-51.2 0-95.085714 21.942857-131.657143 51.2-36.571429 36.571429-58.514286 87.771429-58.514286 131.657143 0 87.771429 58.514286 160.914286 146.285714 182.857143 14.628571 43.885714 36.571429 80.457143 73.142857 109.714285 43.885714 36.571429 95.085714 51.2 146.285715 51.2s102.4-21.942857 146.285714-51.2c36.571429-29.257143 58.514286-65.828571 73.142857-109.714285 80.457143-21.942857 146.285714-95.085714 146.285714-182.857143-7.314286-43.885714-21.942857-95.085714-58.514285-131.657143z"  horiz-adv-x="1024" />

    
    <glyph glyph-name="scan" unicode="&#58919;" d="M139.636364 421.236364h744.727272v-69.818182H139.636364zM130.327273 709.818182c0 32.581818 27.927273 55.854545 55.854545 55.854545h186.181818V840.145455H186.181818C116.363636 840.145455 55.854545 779.636364 55.854545 709.818182v-186.181818h69.818182V709.818182zM837.818182 840.145455h-186.181818v-69.818182h186.181818c32.581818 0 55.854545-27.927273 55.854545-55.854546v-186.181818h69.818182V709.818182c4.654545 69.818182-55.854545 130.327273-125.672727 130.327273zM893.672727 58.18181800000002c0-32.581818-27.927273-55.854545-55.854545-55.854545h-186.181818v-69.818182h186.181818c69.818182 0 130.327273 55.854545 130.327273 130.327273v186.181818h-69.818182V58.18181800000002zM130.327273 58.18181800000002v186.181818H55.854545v-186.181818c0-69.818182 55.854545-130.327273 130.327273-130.327273h186.181818v69.818182H186.181818c-32.581818 4.654545-55.854545 27.927273-55.854545 60.509091z"  horiz-adv-x="1024" />

    
    <glyph glyph-name="huizong" unicode="&#58914;" d="M800.581818 826.181818h-23.272727c-18.618182 0-37.236364-13.963636-37.236364-37.236363s13.963636-37.236364 37.236364-37.236364h23.272727c32.581818 0 55.854545-27.927273 55.854546-55.854546v-623.70909c0-32.581818-27.927273-55.854545-55.854546-55.854546H223.418182c-32.581818 0-55.854545 27.927273-55.854546 55.854546V691.2c0 32.581818 27.927273 55.854545 55.854546 55.854545h23.272727c18.618182 0 37.236364 13.963636 37.236364 37.236364s-18.618182 41.890909-37.236364 41.890909h-23.272727c-69.818182 0-134.981818-60.509091-134.981818-134.981818v-623.709091c0-69.818182 55.854545-134.981818 134.981818-134.981818h577.163636c69.818182 0 134.981818 55.854545 134.981818 134.981818V691.2c0 69.818182-65.163636 134.981818-134.981818 134.981818zM414.254545 737.745455H605.090909c27.927273 0 46.545455 18.618182 46.545455 46.545454s-18.618182 46.545455-46.545455 46.545455H414.254545c-27.927273 0-46.545455-18.618182-46.545454-46.545455s18.618182-46.545455 46.545454-46.545454zM288.581818 402.618182h69.818182v-242.036364H288.581818zM479.418182 500.363636h69.818182v-335.127272h-69.818182zM670.254545 593.454545h69.818182v-432.872727h-69.818182z"  horiz-adv-x="1024" />

    
    <glyph glyph-name="jiguangsaomiaoshice" unicode="&#58913;" d="M349.090909 472.436364c-23.272727 18.618182-37.236364 41.890909-46.545454 65.163636H204.8c-4.654545 0-9.309091 4.654545-9.309091 9.309091V742.4c0 4.654545 4.654545 9.309091 9.309091 9.309091h97.745455c9.309091 23.272727 18.618182 41.890909 37.236363 65.163636l9.309091 9.309091H204.8c-41.890909 4.654545-79.127273-37.236364-79.127273-83.781818v-195.490909c0-46.545455 37.236364-88.436364 88.436364-88.436364h144.290909l-9.309091 13.963637zM814.545455 830.836364h-144.29091l9.309091-9.309091c18.618182-23.272727 27.927273-41.890909 37.236364-65.163637h97.745455c4.654545 0 9.309091-4.654545 9.30909-9.309091v-195.490909c0-4.654545-4.654545-9.309091-9.30909-9.309091h-97.745455c-9.309091-23.272727-18.618182-41.890909-37.236364-65.163636l-9.309091-9.309091h144.29091c46.545455-9.309091 88.436364 27.927273 88.436363 79.127273V742.4c-4.654545 46.545455-41.890909 88.436364-88.436363 88.436364zM512 644.654545m-37.236364 0a37.236364 37.236364 0 1 1 74.472728 0 37.236364 37.236364 0 1 1-74.472728 0ZM600.436364 402.618182c18.618182 0 37.236364 13.963636 37.236363 37.236363 0 18.618182-13.963636 32.581818-27.927272 32.581819 51.2 32.581818 97.745455 97.745455 97.745454 167.563636 0 107.054545-88.436364 195.490909-195.490909 195.490909S316.509091 751.709091 316.509091 644.654545c0-69.818182 46.545455-134.981818 102.4-167.563636-18.618182-4.654545-27.927273-18.618182-27.927273-37.236364s13.963636-37.236364 37.236364-37.236363h41.890909l-232.727273-400.290909 65.163637-37.236364 172.218181 302.545455V-81.454545h74.472728v349.090909l172.218181-302.545455 65.163637 37.236364-232.727273 395.636363h46.545455zM512 765.672727c69.818182 0 121.018182-51.2 121.018182-121.018182S581.818182 523.636364 512 523.636364 390.981818 579.490909 390.981818 644.654545 442.181818 765.672727 512 765.672727z"  horiz-adv-x="1024" />

    
    <glyph glyph-name="filter-visible" unicode="&#58911;" d="M991.418182 193.163636c-65.163636 88.436364-139.636364 130.327273-223.418182 130.327273s-158.254545-46.545455-223.418182-130.327273c-18.618182-23.272727-18.618182-60.509091 0-88.436363 65.163636-88.436364 139.636364-130.327273 223.418182-130.327273s158.254545 46.545455 223.418182 130.327273c18.618182 27.927273 18.618182 65.163636 0 88.436363z m-223.418182-144.290909c-60.509091 0-111.709091 32.581818-167.563636 102.4v4.654546c51.2 69.818182 107.054545 102.4 167.563636 102.4s111.709091-32.581818 167.563636-102.4v-4.654546c-55.854545-69.818182-107.054545-102.4-167.563636-102.4zM768 151.27272700000003m-46.545455 0a46.545455 46.545455 0 1 1 93.09091 0 46.545455 46.545455 0 1 1-93.09091 0ZM409.6 323.490909l-246.690909 372.363636h707.490909l-190.836364-274.618181 69.818182-23.272728L977.454545 737.745455c4.654545 9.309091 4.654545 18.618182-4.654545 27.927272-4.654545 0-4.654545 4.654545-9.309091 4.654546H60.509091c-9.309091 0-18.618182-9.309091-18.618182-18.618182 0-4.654545 0-9.309091 4.654546-9.309091l288.581818-437.527273V-34.90909099999999H465.454545v69.818182H409.6v288.581818z"  horiz-adv-x="1024" />

    
    <glyph glyph-name="icon-tianjiachaolianjie" unicode="&#60178;" d="M876.8 684.8C774.4 812.8 582.4 832 448 729.6L345.6 646.4l51.2-64 102.4 83.2c64 51.2 147.2 64 224 38.4s128-96 140.8-172.8-19.2-160-83.2-211.2l-108.8-89.6 51.2-64L832 256c64 51.2 102.4 128 108.8 204.8s-12.8 160-64 224z m-390.4-614.4c-64-51.2-147.2-64-224-38.4-76.8 32-128 96-140.8 172.8-12.8 89.6 12.8 166.4 76.8 217.6L313.6 512l-51.2 64-115.2-89.6c-128-108.8-147.2-300.8-44.8-428.8s300.8-153.6 428.8-44.8l102.4 83.2-51.2 64-96-89.6z m160 473.6l51.2-64L352 192l-51.2 64 345.6 288z"  horiz-adv-x="1024" />

    
    <glyph glyph-name="shanchu" unicode="&#60179;" d="M402.285714 530.285714c-21.942857 0-36.571429-14.628571-36.571428-36.571428v-365.714286c0-21.942857 14.628571-36.571429 36.571428-36.571429s36.571429 14.628571 36.571429 36.571429v365.714286c0 21.942857-14.628571 36.571429-36.571429 36.571428z m585.142857 219.428572H804.571429v36.571428C804.571429 852.114286 760.685714 896 694.857143 896h-365.714286C270.628571 896 219.428571 852.114286 219.428571 786.285714V749.714286H36.571429c-21.942857 0-36.571429-14.628571-36.571429-36.571429s14.628571-36.571429 36.571429-36.571428h73.142857v-694.857143c0-65.828571 51.2-109.714286 109.714285-109.714286h585.142858c65.828571 0 109.714286 43.885714 109.714285 109.714286V676.571429h73.142857c21.942857 0 36.571429 14.628571 36.571429 36.571428s-14.628571 36.571429-36.571429 36.571429zM292.571429 786.285714c0 21.942857 14.628571 36.571429 36.571428 36.571429h365.714286c21.942857 0 36.571429-14.628571 36.571428-36.571429V749.714286H292.571429v36.571428z m548.571428-804.571428c0-21.942857-14.628571-36.571429-36.571428-36.571429H219.428571c-21.942857 0-36.571429 14.628571-36.571428 36.571429V676.571429h658.285714v-694.857143zM621.714286 530.285714c-21.942857 0-36.571429-14.628571-36.571429-36.571428v-365.714286c0-21.942857 14.628571-36.571429 36.571429-36.571429s36.571429 14.628571 36.571428 36.571429v365.714286c0 21.942857-14.628571 36.571429-36.571428 36.571428z"  horiz-adv-x="1024" />

    
    <glyph glyph-name="setting" unicode="&#60177;" d="M578.327273 845.591273a88.436364 88.436364 0 0 0 71.540363-60.183273 121.623273 121.623273 0 0 1 57.576728-70.516364c27.927273-15.499636 59.298909-20.666182 90.763636-13.777454 33.093818 6.888727 68.002909-5.12 87.226182-30.952727 24.389818-36.119273 47.104-72.238545 62.836363-111.802182a87.412364 87.412364 0 0 0-17.50109-91.136c-43.613091-46.452364-43.613091-120.413091 0-168.587637 22.714182-24.064 29.696-60.183273 17.454545-91.136a436.224 436.224 0 0 0-64.558545-110.08c-20.945455-25.786182-55.854545-37.841455-87.226182-30.952727a128.325818 128.325818 0 0 1-90.763637-13.777454c-27.927273-15.453091-47.104-41.285818-57.576727-70.516364a88.436364 88.436364 0 0 0-71.540364-60.183273c-20.945455-1.722182-43.613091-3.444364-64.558545-3.444363-20.945455 0-43.613091 1.722182-64.558545 5.12a88.436364 88.436364 0 0 0-71.540364 60.229818c-19.223273 61.905455-83.781818 98.024727-148.340364 84.247272a88.436364 88.436364 0 0 0-87.226182 30.999273c-26.158545 34.397091-48.872727 70.516364-64.558545 110.08a87.412364 87.412364 0 0 0 17.454545 91.136c43.613091 46.452364 43.613091 120.413091 0 168.541091a87.412364 87.412364 0 0 0-17.454545 91.182546 436.224 436.224 0 0 0 64.558545 110.08c20.945455 25.786182 55.854545 37.841455 88.99491 30.952727 31.418182-6.888727 62.836364-1.722182 90.763636 13.777454 27.880727 15.453091 47.057455 41.239273 57.530182 70.516364A88.436364 88.436364 0 0 0 449.163636 845.591273c41.890909 5.12 85.504 5.12 129.163637 0zM457.914182 773.352727c-6.981818-1.722182-12.241455-5.166545-13.963637-12.055272a186.833455 186.833455 0 0 0-88.994909-110.08c-41.890909-24.064-92.485818-30.952727-141.358545-20.619637a19.595636 19.595636 0 0 1-17.408-5.12 424.913455 424.913455 0 0 1-55.854546-92.904727c-1.768727-6.888727-1.768727-13.777455 3.49091-18.944a192.884364 192.884364 0 0 0 0-261.399273 16.290909 16.290909 0 0 1-3.49091-17.221818 407.272727 407.272727 0 0 1 54.085819-92.858182c3.490909-5.166545 12.194909-6.888727 17.454545-6.888727 99.467636 22.341818 198.935273-36.119273 230.306909-130.699636 1.768727-6.888727 6.981818-10.333091 13.963637-12.101819 17.454545-1.675636 36.677818-3.397818 54.132363-3.397818 19.176727 0 36.631273 1.722182 55.854546 3.444364 6.981818 1.722182 12.194909 5.12 13.963636 12.055273 13.917091 46.405818 45.335273 85.969455 88.948364 110.033454 41.890909 24.110545 92.485818 30.999273 141.358545 20.666182 6.981818-1.722182 13.963636 1.722182 17.408 5.12 22.714182 29.277091 41.890909 60.229818 55.854546 92.904727 1.768727 5.166545 1.768727 13.777455-3.49091 18.944a192.884364 192.884364 0 0 0 0 261.399273c5.259636 5.166545 5.259636 12.055273 3.49091 18.944a388.096 388.096 0 0 1-55.854546 92.858182c-3.444364 5.12-10.426182 6.888727-17.408 5.12a197.306182 197.306182 0 0 0-139.636364 20.666182A186.833455 186.833455 0 0 0 581.818182 761.297455c-1.768727 6.888727-6.981818 12.055273-13.963637 12.055272a392.285091 392.285091 0 0 1-109.940363 0zM512 570.181818a186.181818 186.181818 0 1 0 0-372.363636 186.181818 186.181818 0 0 0 0 372.363636z m0-69.818182a116.363636 116.363636 0 1 1 0-232.727272 116.363636 116.363636 0 0 1 0 232.727272z"  horiz-adv-x="1024" />

    
    <glyph glyph-name="logo" unicode="&#60175;" d="M231.032058 585.6074699999999v-328.628704c0-9.279681 6.079791-60.541919 145.083013-169.402176a1664.742774 1664.742774 0 0 1 135.611338-94.684746 1719.140905 1719.140905 0 0 1 135.86733 95.9967c142.171113 112.316139 145.307005 162.554412 145.307005 168.090222V585.575471L511.982401 773.952995 231.032058 585.575471z m672.168894-73.917459v-253.495286c0-73.117487-61.981869-157.530585-189.497486-258.103128a1812.417698 1812.417698 0 0 0-174.138014-120.475859 53.918147 53.918147 0 0 0-54.782116-0.223992 1750.659821 1750.659821 0 0 0-174.362007 119.067907c-127.643612 99.804569-189.689479 184.473659-189.689479 258.871101v254.359257l-36.06276-24.191169a54.078141 54.078141 0 0 0-75.6454 15.807457 56.126071 56.126071 0 0 0 15.551465 76.925356L481.903435 886.781117a53.886148 53.886148 0 0 0 60.093934 0l457.360278-306.549462a56.094072 56.094072 0 0 0 15.551465-76.925356c-10.495639-16.191443-27.903041-24.959142-45.630431-24.959142-10.335645 0-20.799285 2.943899-30.014968 9.151685l-36.094759 24.191169z m-513.262356-107.708298l68.701638-42.622535c23.231201 27.93504 99.228589 114.428067 187.993538 164.058361a12.543569 12.543569 0 0 0 15.295474-2.399918l24.73515-26.271097a13.119549 13.119549 0 0 0-1.055964-18.91135c-4.799835-4.095859-118.587924-102.300483-186.105602-253.879272a12.767561 12.767561 0 0 0-11.583602-7.615739 12.607567 12.607567 0 0 0-8.607704 3.391884l-144.507033 135.035358a13.119549 13.119549 0 0 0 1.279956 20.191306l39.902628 28.543019c4.159857 2.975898 9.59967 3.135892 13.951521 0.479983z"  horiz-adv-x="1024" />

    
    <glyph glyph-name="minus" unicode="&#60173;" d="M42.666667 418.986667h938.666666v-85.333334H42.666667z"  horiz-adv-x="1024" />

    
    <glyph glyph-name="add" unicode="&#60174;" d="M554.666667 341.33333300000004v-426.666666h-85.333334v426.666666h-426.666666v85.333334h426.666666v426.666666h85.333334v-426.666666h426.666666v-85.333334h-426.666666z"  horiz-adv-x="1024" />

    
    <glyph glyph-name="xianchangjiancha1" unicode="&#60170;" d="M551.384615 541.538462L385.969231 376.123077l-55.138462 55.138461c-15.753846 15.753846-39.384615 15.753846-55.138461 0-15.753846-15.753846-15.753846-39.384615 0-55.138461l86.646154-78.769231c7.876923-7.876923 15.753846-7.876923 31.507692-7.876923s23.630769 0 31.507692 7.876923l196.923077 189.046154c15.753846 15.753846 15.753846 39.384615 0 55.138462-31.507692 15.753846-55.138462 15.753846-70.892308 0zM984.615385-33.476923L787.692308 163.446154c63.015385 78.769231 102.4 173.292308 102.4 283.569231C890.092308 691.2 693.169231 896 448.984615 896S0 691.2 0 447.015385s196.923077-441.107692 441.107692-441.107693c110.276923 0 204.8 39.384615 283.569231 102.4l196.923077-196.923077c15.753846-15.753846 39.384615-15.753846 55.138462 0 23.630769 15.753846 23.630769 39.384615 7.876923 55.138462z m-535.63077 118.153846c-196.923077 0-362.338462 165.415385-362.338461 362.338462 0 196.923077 165.415385 362.338462 362.338461 362.338461s362.338462-165.415385 362.338462-362.338461c0-196.923077-165.415385-362.338462-362.338462-362.338462z"  horiz-adv-x="1024" />

    
    <glyph glyph-name="shiceshiliang1" unicode="&#60171;" d="M256 237.714286c-14.628571 0-21.942857-7.314286-36.571429-14.628572-14.628571-21.942857-14.628571-51.2 0-65.828571 7.314286-7.314286 21.942857-14.628571 36.571429-14.628572s21.942857 7.314286 36.571429 14.628572c14.628571 21.942857 14.628571 51.2 0 65.828571-14.628571 7.314286-21.942857 14.628571-36.571429 14.628572zM936.228571 625.371429L738.742857 822.857143c-21.942857 21.942857-43.885714 29.257143-73.142857 29.257143s-51.2-14.628571-73.142857-29.257143L65.828571 281.6c-36.571429-43.885714-36.571429-109.714286 0-153.6l190.171429-204.8c21.942857-21.942857 43.885714-29.257143 73.142857-29.257143h424.228572c14.628571 0 29.257143 14.628571 29.257142 36.571429s-14.628571 36.571429-29.257142 36.571428H438.857143l482.742857 504.685715c51.2 43.885714 51.2 109.714286 14.628571 153.6z m-51.2-102.4l-43.885714-51.2s0 7.314286-7.314286 7.314285l-36.571428 36.571429c-14.628571 14.628571-36.571429 14.628571-51.2 0-14.628571-14.628571-14.628571-36.571429 0-51.2l36.571428-36.571429 7.314286-7.314285-43.885714-43.885715s0 7.314286-7.314286 7.314286l-36.571428 36.571429c-7.314286 7.314286-21.942857 14.628571-29.257143 14.628571-7.314286 0-21.942857-7.314286-29.257143-14.628571-14.628571-14.628571-14.628571-36.571429 0-51.2l36.571428-36.571429 7.314286-7.314286-36.571428-43.885714s0 7.314286-7.314286 7.314286l-73.142857 80.457143c-7.314286 0-21.942857 7.314286-29.257143 7.314285-14.628571 0-21.942857-7.314286-29.257143-14.628571-14.628571-14.628571-14.628571-36.571429 0-51.2l73.142857-80.457143 7.314286-7.314286-36.571429-43.885714s0 7.314286-7.314285 7.314286L512 223.085714c-7.314286 7.314286-21.942857 14.628571-29.257143 14.628572-7.314286 0-21.942857-7.314286-29.257143-14.628572-14.628571-14.628571-14.628571-36.571429 0-51.2l36.571429-36.571428 7.314286-7.314286-43.885715-43.885714s0 7.314286-7.314285 7.314285l-36.571429 36.571429c-14.628571 14.628571-36.571429 14.628571-51.2 0-14.628571-14.628571-14.628571-36.571429 0-51.2l36.571429-36.571429 7.314285-7.314285-51.2-51.2c-14.628571-14.628571-29.257143-14.628571-43.885714 0L124.342857 179.2c-14.628571 14.628571-14.628571 36.571429 0 51.2l526.628572 548.571429s7.314286 7.314286 14.628571 7.314285 14.628571 0 21.942857-7.314285L877.714286 574.171429c14.628571-14.628571 14.628571-36.571429 7.314285-51.2z"  horiz-adv-x="1024" />

    
    <glyph glyph-name="gongxuyanshouV" unicode="&#60172;" d="M810.666667 896h-597.333334C93.866667 896 0 802.133333 0 682.666667v-597.333334C0-34.133333 93.866667-128 213.333333-128h256c25.6 0 42.666667 17.066667 42.666667 42.666667s-17.066667 42.666667-42.666667 42.666666h-256C145.066667-42.666667 85.333333 17.066667 85.333333 85.333333v597.333334C85.333333 750.933333 145.066667 810.666667 213.333333 810.666667h597.333334c68.266667 0 128-59.733333 128-128v-332.8c0-25.6 17.066667-42.666667 42.666666-42.666667s42.666667 17.066667 42.666667 42.666667V682.666667C1024 802.133333 930.133333 896 810.666667 896zM298.666667 256c-25.6 0-42.666667-17.066667-42.666667-42.666667s17.066667-42.666667 42.666667-42.666666h426.666666c25.6 0 42.666667 17.066667 42.666667 42.666666s-17.066667 42.666667-42.666667 42.666667h-170.666666v256H682.666667c25.6 0 42.666667 17.066667 42.666666 42.666667s-17.066667 42.666667-42.666666 42.666666H341.333333c-25.6 0-42.666667-17.066667-42.666666-42.666666s17.066667-42.666667 42.666666-42.666667h128v-256h-170.666666zM921.6 187.733333l-170.666667-170.666666-59.733333 51.2c-17.066667 17.066667-42.666667 17.066667-59.733333 0-17.066667-17.066667-17.066667-42.666667 0-59.733334l85.333333-85.333333c8.533333-8.533333 17.066667-8.533333 34.133333-8.533333s25.6 0 34.133334 8.533333L981.333333 128c17.066667 17.066667 17.066667 42.666667 0 59.733333s-42.666667 17.066667-59.733333 0z"  horiz-adv-x="1024" />

    
    <glyph glyph-name="set-view" unicode="&#60160;" d="M991.418182 169.89090899999997c-69.818182 102.4-153.6 153.6-246.690909 153.6s-172.218182-51.2-246.690909-153.6c-18.618182-27.927273-18.618182-60.509091 0-88.436364 69.818182-102.4 153.6-153.6 246.690909-153.6s172.218182 51.2 246.690909 153.6c18.618182 27.927273 18.618182 65.163636 0 88.436364z m-60.509091-46.545454c-60.509091-83.781818-121.018182-125.672727-186.181818-125.672728s-130.327273 41.890909-186.181818 125.672728v9.30909c60.509091 83.781818 121.018182 125.672727 186.181818 125.672728s130.327273-41.890909 186.181818-125.672728c4.654545-4.654545 4.654545-4.654545 0-9.30909zM693.527273 128a55.854545 51.2 90 1 1 102.4 0 55.854545 51.2 90 1 1-102.4 0ZM363.054545 30.254545000000007c-37.236364 13.963636-74.472727 37.236364-107.054545 60.509091 13.963636 51.2 4.654545 111.709091-23.272727 158.254546s-74.472727 83.781818-125.672728 97.745454c-4.654545 18.618182-4.654545 41.890909-4.654545 60.509091s0 41.890909 4.654545 60.509091C158.254545 481.745455 204.8 518.981818 232.727273 565.5272729999999c27.927273 46.545455 37.236364 107.054545 23.272727 158.254545 32.581818 27.927273 69.818182 46.545455 107.054545 60.509091 37.236364-37.236364 93.090909-60.509091 148.945455-60.509091s107.054545 23.272727 148.945455 60.509091c37.236364-13.963636 74.472727-37.236364 107.054545-60.509091-13.963636-51.2-4.654545-111.709091 23.272727-158.254545s74.472727-83.781818 125.672728-97.745455c4.654545-18.618182 4.654545-41.890909 4.654545-60.509091v-37.236363l69.818182-4.654546v41.890909c0 32.581818-4.654545 65.163636-9.309091 97.745455l-4.654546 23.272727-23.272727 4.654546c-41.890909 4.654545-79.127273 32.581818-102.4 69.818181-23.272727 37.236364-23.272727 83.781818-9.309091 121.018182l9.309091 23.272727-18.618182 13.963637C781.963636 802.909091 726.109091 840.145455 665.6 858.763636l-23.272727 9.309091-18.618182-18.618182c-27.927273-32.581818-65.163636-51.2-111.709091-51.2S428.218182 812.218182 400.290909 849.454545L386.327273 868.072727l-23.272728-9.309091c-60.509091-18.618182-121.018182-51.2-167.563636-97.745454l-18.618182-13.963637 9.309091-23.272727c13.963636-41.890909 13.963636-83.781818-9.309091-121.018182S116.363636 537.6 74.472727 532.945455l-23.272727-4.654546-4.654545-23.272727c-4.654545-32.581818-9.309091-65.163636-9.309091-97.745455 0-32.581818 4.654545-65.163636 9.309091-97.745454l4.654545-23.272728 23.272727-4.654545c41.890909-4.654545 79.127273-32.581818 102.4-69.818182 23.272727-37.236364 23.272727-83.781818 9.309091-121.018182l-9.309091-23.272727 18.618182-13.963636c51.2-41.890909 107.054545-79.127273 167.563636-97.745455l23.272728-9.309091 13.963636 18.618182c13.963636 18.618182 27.927273 27.927273 51.2 37.236364L418.909091 67.49090899999999c-18.618182-9.309091-37.236364-23.272727-55.854546-37.236364zM409.6 407.272727c0-55.854545 46.545455-102.4 102.4-102.4 55.854545 0 102.4 46.545455 102.4 102.4s-46.545455 102.4-102.4 102.4c-55.854545 0-102.4-46.545455-102.4-102.4z m134.981818 0c0-18.618182-13.963636-32.581818-32.581818-32.581818s-32.581818 13.963636-32.581818 32.581818 13.963636 32.581818 32.581818 32.581818 32.581818-13.963636 32.581818-32.581818z"  horiz-adv-x="1024" />

    
    <glyph glyph-name="list-delete" unicode="&#60134;" d="M512 456.3968L946.4832 890.88l72.3968-72.3968L584.3968 384 1018.88-50.48320000000001l-72.3968-72.3968L512 311.6032 77.5168-122.88 5.12-50.48320000000001 439.6032 384 5.12 818.4832 77.5168 890.88z"  horiz-adv-x="1024" />

    
    <glyph glyph-name="delete" unicode="&#60133;" d="M402.285714 530.285714c-21.942857 0-36.571429-14.628571-36.571428-36.571428v-365.714286c0-21.942857 14.628571-36.571429 36.571428-36.571429s36.571429 14.628571 36.571429 36.571429v365.714286c0 21.942857-14.628571 36.571429-36.571429 36.571428z m585.142857 219.428572H804.571429v36.571428C804.571429 848.457143 757.028571 896 694.857143 896h-365.714286C266.971429 896 219.428571 848.457143 219.428571 786.285714V749.714286H36.571429c-21.942857 0-36.571429-14.628571-36.571429-36.571429s14.628571-36.571429 36.571429-36.571428h73.142857v-694.857143c0-62.171429 47.542857-109.714286 109.714285-109.714286h585.142858c62.171429 0 109.714286 47.542857 109.714285 109.714286V676.571429h73.142857c21.942857 0 36.571429 14.628571 36.571429 36.571428s-14.628571 36.571429-36.571429 36.571429zM292.571429 786.285714c0 21.942857 14.628571 36.571429 36.571428 36.571429h365.714286c21.942857 0 36.571429-14.628571 36.571428-36.571429V749.714286H292.571429v36.571428z m548.571428-804.571428c0-21.942857-14.628571-36.571429-36.571428-36.571429H219.428571c-21.942857 0-36.571429 14.628571-36.571428 36.571429V676.571429h658.285714v-694.857143zM621.714286 530.285714c-21.942857 0-36.571429-14.628571-36.571429-36.571428v-365.714286c0-21.942857 14.628571-36.571429 36.571429-36.571429s36.571429 14.628571 36.571428 36.571429v365.714286c0 21.942857-14.628571 36.571429-36.571428 36.571428z"  horiz-adv-x="1024" />

    
    <glyph glyph-name="lishi" unicode="&#60129;" d="M767.414857 713.142857a36.571429 36.571429 0 0 0 0 73.142857H804.571429A109.714286 109.714286 0 0 0 914.285714 676.571429v-658.285715a109.714286 109.714286 0 0 0-109.714285-109.714285H219.428571A109.714286 109.714286 0 0 0 109.714286 18.285713999999984V676.571429A109.714286 109.714286 0 0 0 219.428571 786.285714h39.277715a36.571429 36.571429 0 0 0 0-73.142857H219.428571a36.571429 36.571429 0 0 1-36.571428-36.571428v-658.285715a36.571429 36.571429 0 0 1 36.571428-36.571428h585.142858a36.571429 36.571429 0 0 1 36.571428 36.571428V676.571429a36.571429 36.571429 0 0 1-36.571428 36.571428h-37.156572zM329.142857 237.71428600000002h365.714286a36.571429 36.571429 0 0 0 0-73.142857h-365.714286a36.571429 36.571429 0 0 0 0 73.142857z m0 219.428571h365.714286a36.571429 36.571429 0 0 0 0-73.142857h-365.714286a36.571429 36.571429 0 0 0 0 73.142857z m292.571429 402.285714A36.571429 36.571429 0 0 0 658.285714 822.857143v-146.285714a36.571429 36.571429 0 0 0-73.142857 0V822.857143a36.571429 36.571429 0 0 0 36.571429 36.571428z m-219.428572 0A36.571429 36.571429 0 0 0 438.857143 822.857143v-146.285714a36.571429 36.571429 0 0 0-73.142857 0V822.857143a36.571429 36.571429 0 0 0 36.571428 36.571428z"  horiz-adv-x="1024" />

    
    <glyph glyph-name="qiehuanditu" unicode="&#60086;" d="M617.937455 248.92509099999995a132.654545 132.654545 0 0 0-211.87491 0C298.635636 391.447273 244.363636 499.2 244.363636 576.9309089999999c0 144.290909 120.087273 260.887273 267.636364 260.887273s267.636364-116.549818 267.636364-260.887273c0-77.730909-54.272-185.483636-161.698909-328.005818z m91.880727 328.005818c0 105.285818-88.343273 191.069091-197.818182 191.069091-109.474909 0-197.818182-85.783273-197.818182-191.069091C314.181818 518.981818 363.008 422.074182 461.824 290.909091a62.836364 62.836364 0 0 1 100.352 0c98.816 131.165091 147.642182 228.072727 147.642182 286.021818zM512 477.090909a93.090909 93.090909 0 1 0 0 186.181818 93.090909 93.090909 0 0 0 0-186.181818z m0 58.181818a34.909091 34.909091 0 1 1 0 69.818182 34.909091 34.909091 0 0 1 0-69.818182zM869.562182 447.022545a34.909091 34.909091 0 0 0-35.421091 60.136728l43.985454 25.925818a58.181818 58.181818 0 0 0 87.691637-50.129455v-351.883636c0-28.625455-14.987636-55.109818-42.356364-71.354182l-231.563636-111.383273a81.454545 81.454545 0 0 0-78.289455-3.072l-234.216727 116.829091c-3.537455 1.768727-7.773091 1.629091-14.196364-2.048l-218.856727-103.703272a58.181818 58.181818 0 0 0-88.157091 49.896727V384a34.909091 34.909091 0 0 0 17.268364 30.114909l79.592727 46.545455a34.909091 34.909091 0 1 0 35.281455-60.229819l-62.324364-36.44509v-339.269819l204.241455 96.814546a81.454545 81.454545 0 0 0 78.336 3.025454l234.170181-116.829091c3.584-1.768727 7.773091-1.582545 14.056728 1.95491l231.563636 111.383272a11.636364 11.636364 0 0 1 5.632 10.007273V462.568727l-26.437818-15.546182zM113.384727 17.780363999999963l0.791273 0.418909a3.118545 3.118545 0 0 1-0.791273-0.418909z"  horiz-adv-x="1024" />

    
    <glyph glyph-name="qiehuanliebiao" unicode="&#60085;" d="M930.909091 756.363636H372.363636v-69.818181h558.545455V756.363636zM372.363636 34.90909099999999h558.545455V104.72727299999997H372.363636v-69.818182z m0 325.818182h558.545455V430.545455H372.363636v-69.818182zM279.272727 756.363636H93.090909v-69.818181h186.181818V756.363636zM93.090909 34.90909099999999h186.181818V104.72727299999997H93.090909v-69.818182z m0 325.818182h186.181818V430.545455H93.090909v-69.818182z"  horiz-adv-x="1024" />

    
    <glyph glyph-name="edit" unicode="&#60064;" d="M581.36 753.04000031L707.19999969 627.12 334.88 254.71999969l-183.43999969-57.51999938 57.51999938 183.43999969 372.40000031 372.40000031z m41.59999969 41.59999969l36.80000062 36.79999969A89.04 89.04 0 1 0 785.84 705.6l-36.79999969-36.79999969L622.88 794.56000031zM92 37.60000031000004h840a60 60 0 0 0 60-60v-13.60000031a60 60 0 0 0-60-60H92a60 60 0 0 0-60 60v13.60000031a60 60 0 0 0 60 60z"  horiz-adv-x="1024" />

    
    <glyph glyph-name="list-index" unicode="&#60024;" d="M305.078857 13.09257100000002a36.571429 36.571429 0 1 0 0-73.142857H104.521143c-57.782857 0-104.521143 46.811429-104.521143 104.448V791.4788570000001C0 849.261714 46.811429 896 104.521143 896h747.081143c57.709714 0 104.448-46.811429 104.448-104.521143v-89.526857a36.571429 36.571429 0 0 0-73.142857 0V791.4788570000001A31.378286 31.378286 0 0 1 851.602286 822.857143H104.521143A31.378286 31.378286 0 0 1 73.142857 791.4788570000001v-747.081143c0-17.334857 14.043429-31.305143 31.378286-31.305143H305.005714zM208.969143 723.602286H585.142857a36.571429 36.571429 0 1 0 0-73.142857H208.969143a36.571429 36.571429 0 1 0 0 73.142857z m0-169.837715h232.521143a36.571429 36.571429 0 1 0 0-73.142857H208.969143a36.571429 36.571429 0 1 0 0 73.142857z m0-169.764571H360.594286a36.571429 36.571429 0 0 0 0-73.142857H208.969143a36.571429 36.571429 0 1 0 0 73.142857z"  horiz-adv-x="1024" />

    
    <glyph glyph-name="nav-info" unicode="&#60016;" d="M512-51.200000000000045a435.2 435.2 0 1 1 0 870.4 435.2 435.2 0 0 1 0-870.4z m0-76.8C229.2224-128 0 101.2224 0 384S229.2224 896 512 896s512-229.2224 512-512-229.2224-512-512-512z m-34.9696 239.3088c13.7216 0 30.7712 5.9392 51.3024 17.408 20.6848 11.3664 45.4144 36.4544 86.016 86.8352l-20.6848 17.3056c-38.4-35.328-63.6416-53.9648-70.5024-53.9648 0.256 0-0.1536 0.2048-1.1776 1.4336-0.9728 1.1776-1.536 3.072-1.536 5.9392 0 20.6848 16.0256 83.8656 48.64 191.5904 20.1216 65.1776 30.4128 103.3728 30.4128 113.664a28.928 28.928 0 0 1-10.8032 23.3984c-6.656 5.4272-15.7184 7.8336-27.4432 7.8336-19.4048 0-42.1888-7.424-68.608-22.1184-29.4912-16.384-54.272-37.7856-84.0704-74.24l29.0816-24.6272c28.5696 27.0848 44.4416 41.0624 51.2512 45.056a36.096 36.096 0 0 0 17.3056 5.9904c1.3824 0 0.768 0.6144 0.768-1.2288a50.8416 50.8416 0 0 0-2.8672-15.9232c-46.592-146.8416-70.0416-240.0768-70.0416-279.04 0-13.4656 3.8912-24.832 11.4688-32.9728a42.496 42.496 0 0 1 31.488-12.3392z m43.8272 555.9296a48.64 48.64 0 0 1-36.2496-14.336c-9.728-9.2672-14.592-21.504-14.592-36.5056 0-14.336 4.864-26.4704 14.592-36.5056 9.7792-10.0352 22.3232-15.0528 36.2496-15.0528 13.9264 0 26.4704 5.0176 36.1984 14.336 9.728 10.0352 15.36 22.1696 15.36 37.2224s-4.864 27.2384-14.6432 36.5056c-9.728 10.0352-22.272 14.336-36.9152 14.336z"  horiz-adv-x="1024" />

    
    <glyph glyph-name="shoot-video" unicode="&#60015;" d="M1152 609.0752l-217.1392-131.5328a25.6 25.6 0 0 0-38.8608 21.9136V768a51.2 51.2 0 0 1-51.2 51.2h-716.8a51.2 51.2 0 0 1-51.2-51.2v-768a51.2 51.2 0 0 1 51.2-51.2h716.8a51.2 51.2 0 0 1 51.2 51.2v244.4288a25.6 25.6 0 0 0 38.8608 21.9136l217.1392-131.5328V609.0752z m-163.6352-9.3696l162.7136 98.56A51.2 51.2 0 0 0 1228.8 654.4896v-565.0944a51.2 51.2 0 0 0-77.7216-43.8272l-162.7136 98.56a10.24 10.24 0 0 1-15.5648-8.704V0a128 128 0 0 0-128-128h-716.8A128 128 0 0 0 0 0v768A128 128 0 0 0 128 896h716.8A128 128 0 0 0 972.8 768v-159.5392a10.24 10.24 0 0 1 15.5648-8.704zM371.2 522.6496v-277.2992L613.7856 384 371.2 522.6496z m18.944-354.9184a64 64 0 0 0-95.744 55.6032V544.6656a64 64 0 0 0 95.744 55.6032l281.1904-160.7168a64 64 0 0 0 0-111.104L390.144 167.73119999999994zM768 691.2m-51.2 0a51.2 51.2 0 1 1 102.4 0 51.2 51.2 0 1 1-102.4 0Z"  horiz-adv-x="1228" />

    
    <glyph glyph-name="unqualified" unicode="&#60007;" d="M20.48-3.7302859999999782L899.730286 875.446857l103.424-103.424-879.177143-879.177143zM123.977143 875.52l879.177143-879.250286-103.424-103.424L20.553143 772.022857z"  horiz-adv-x="1024" />

    
    <glyph glyph-name="qualified" unicode="&#60010;" d="M416.182857 106.057143L1135.177143 830.171429l102.4-103.131429L416.182857-100.93714299999999l-102.4 103.131429L5.851429 310.85714299999995l102.4 103.131428z"  horiz-adv-x="1243" />

    
    <glyph glyph-name="keyboard-close" unicode="&#60011;" d="M924.097561 96.78048799999999h-799.219512A124.878049 124.878049 0 0 0 0 221.65853700000002v549.463414A124.878049 124.878049 0 0 0 124.878049 896h799.219512A124.878049 124.878049 0 0 0 1048.97561 771.121951v-549.463414a124.878049 124.878049 0 0 0-124.878049-124.878049zM124.878049 846.04878A74.926829 74.926829 0 0 1 49.95122 771.121951v-549.463414A74.926829 74.926829 0 0 1 124.878049 146.73170700000003h799.219512a74.926829 74.926829 0 0 1 74.926829 74.92683v549.463414A74.926829 74.926829 0 0 1 924.097561 846.04878zM399.609756-28.09756100000004h249.756098l-124.878049-99.902439-124.878049 99.902439zM690.825366 649.240976m29.970732 0l50.950243 0q29.970732 0 29.970732-29.970732l0-50.950244q0-29.970732-29.970732-29.970732l-50.950243 0q-29.970732 0-29.970732 29.970732l0 50.950244q0 29.970732 29.970732 29.970732ZM469.041951 649.240976m29.970732 0l50.950244 0q29.970732 0 29.970732-29.970732l0-50.950244q0-29.970732-29.970732-29.970732l-50.950244 0q-29.970732 0-29.970732 29.970732l0 50.950244q0 29.970732 29.970732 29.970732ZM246.759024 649.240976m29.970732 0l50.950244 0q29.970732 0 29.970732-29.970732l0-50.950244q0-29.970732-29.970732-29.970732l-50.950244 0q-29.970732 0-29.970732 29.970732l0 50.950244q0 29.970732 29.970732 29.970732ZM690.825366 426.958049m29.970732 0l50.950243 0q29.970732 0 29.970732-29.970732l0-50.950244q0-29.970732-29.970732-29.970732l-50.950243 0q-29.970732 0-29.970732 29.970732l0 50.950244q0 29.970732 29.970732 29.970732ZM469.041951 426.958049m29.970732 0l50.950244 0q29.970732 0 29.970732-29.970732l0-50.950244q0-29.970732-29.970732-29.970732l-50.950244 0q-29.970732 0-29.970732 29.970732l0 50.950244q0 29.970732 29.970732 29.970732ZM246.759024 426.958049m29.970732 0l50.950244 0q29.970732 0 29.970732-29.970732l0-50.950244q0-29.970732-29.970732-29.970732l-50.950244 0q-29.970732 0-29.970732 29.970732l0 50.950244q0 29.970732 29.970732 29.970732Z"  horiz-adv-x="1048" />

    
    <glyph glyph-name="keyboard-delete" unicode="&#60012;" d="M722.016086 578.2305630000001a34.316354 34.316354 0 0 0 48.729222 0l339.731904-339.731903a34.316354 34.316354 0 0 0 0-48.729223 34.316354 34.316354 0 0 0-48.729223 0l-339.731903 339.731903a34.316354 34.316354 0 0 0 0 48.729223zM722.016086 189.76943700000004a34.316354 34.316354 0 0 0 0 48.729223l339.731903 339.731903a34.316354 34.316354 0 0 0 48.729223 0 34.316354 34.316354 0 0 0 0-48.729223l-339.731904-339.731903a34.316354 34.316354 0 0 0-48.729222 0zM1343.828418-128h-823.592493a99.517426 99.517426 0 0 0-68.632708 28.825737L30.198391 315.367292a100.203753 100.203753 0 0 0-1.372654 137.265416l420.718499 411.796246A100.203753 100.203753 0 0 0 514.745308 895.313673h823.592494a168.836461 168.836461 0 0 0 170.895442-168.150134v-686.327078a167.463807 167.463807 0 0 0-164.032172-168.836461zM516.117962 832.857909a36.375335 36.375335 0 0 1-22.648793-10.294906l-419.345845-411.796247a37.747989 37.747989 0 0 1 0-53.533512l419.345845-411.796247a37.061662 37.061662 0 0 1 26.080429-10.981233h823.592493a105.69437 105.69437 0 0 1 102.949062 106.380697v686.327078A106.380697 106.380697 0 0 1 1340.396783 832.857909z"  horiz-adv-x="1510" />

    
    <glyph glyph-name="remark" unicode="&#60002;" d="M512-81.45454500000005C254.929455-81.45454500000005 46.545455 126.92945499999996 46.545455 384S254.929455 849.454545 512 849.454545s465.454545-208.384 465.454545-465.454545-208.384-465.454545-465.454545-465.454545z m0 69.818181a395.636364 395.636364 0 1 1 0 791.272728 395.636364 395.636364 0 0 1 0-791.272728z m13.591273 651.636364c47.662545 0 86.388364-12.660364 116.177454-39.470545 29.789091-26.065455 44.683636-61.812364 44.683637-106.496 0-36.491636-9.681455-67.025455-28.299637-90.856728-6.702545-8.192-27.554909-27.554909-62.557091-58.088727a123.671273 123.671273 0 0 1-31.278545-38.725818c-8.192-14.894545-11.915636-31.278545-11.915636-49.152v-12.660364h-79.685819v12.660364c0 27.554909 4.468364 51.386182 14.894546 70.749091 9.681455 20.852364 37.981091 51.386182 84.154182 92.346182l12.660363 14.149818c13.405091 17.128727 20.852364 35.002182 20.852364 54.365091 0 26.065455-7.447273 46.173091-21.597091 61.067636-14.894545 14.894545-36.491636 22.341818-63.301818 22.341818-33.512727 0-58.088727-10.426182-72.983273-32.023273-13.405091-17.873455-20.107636-43.194182-20.107636-75.962181H349.090909c0 54.365091 15.639273 96.814545 46.917818 128.093091 31.278545 32.023273 74.472727 47.662545 129.582546 47.662545z m-13.405091-435.665455c15.639273 0 29.044364-4.468364 39.470545-14.894545 10.426182-9.681455 15.639273-22.341818 15.639273-37.981091 0-15.639273-5.957818-28.299636-16.384-38.725818-10.426182-9.681455-23.831273-14.894545-38.725818-14.894546-14.894545 0-28.299636 5.213091-38.725818 15.639273a51.665455 51.665455 0 0 0-15.639273 37.981091c0 15.639273 5.213091 28.299636 15.639273 37.981091 10.426182 10.426182 23.831273 14.894545 38.725818 14.894545z"  horiz-adv-x="1024" />

    
    <glyph glyph-name="guide" unicode="&#59995;" d="M791.272727 663.272727v34.909091V802.909091H267.636364A104.727273 104.727273 0 0 1 162.909091 698.181818c0-3.630545 0.698182-7.028364 1.070545-10.565818L162.909091 81.45454500000005S162.909091-34.90909099999999 279.272727-34.90909099999999h628.363637V663.272727H791.272727zM267.636364 733.090909h453.818181V663.272727H267.636364a34.909091 34.909091 0 1 0 0 69.818182zM837.818182 34.90909099999999H279.272727c-46.545455 0-46.545455 46.545455-46.545454 46.545454v512h605.090909v-558.545454z m-162.909091 418.909091H325.818182V384h349.090909V453.818182z m-139.636364-162.909091H325.818182v-69.818182h209.454545V290.909091z"  horiz-adv-x="1024" />

    
    <glyph glyph-name="zhankai" unicode="&#59935;" d="M512 131.84a32 32 0 0 0-16 4.16L232.96 288a32 32 0 0 0-11.52 43.84 32 32 0 0 0 43.52 11.84L512 200.64l247.04 142.72a32 32 0 0 0 32-55.68L528 136a32 32 0 0 0-16-4.16z m0 232a32 32 0 0 0-16 4.48L232.96 520a32 32 0 0 0-11.52 43.84A32 32 0 0 0 264.96 576L512 432.96 759.04 576a32 32 0 0 0 43.52-11.52 32 32 0 0 0-11.52-43.84L528 368.32a32 32 0 0 0-16-4.48z"  horiz-adv-x="1024" />

    
    <glyph glyph-name="arrow-up" unicode="&#60089;" d="M977.481143 201.14285700999994L512 666.62400001 46.518857 201.14285700999994 124.050286 123.61142900000004 512 511.414857 899.876571 123.53828599999997z"  horiz-adv-x="1024" />

    
    <glyph glyph-name="arrow-right" unicode="&#59910;" d="M329.142857-81.48114299999997L794.624 384 329.142857 849.481143 251.611429 771.949714 639.414857 384 251.538286-3.8765710000000126z"  horiz-adv-x="1024" />

    
    <glyph glyph-name="arrow-left" unicode="&#60090;" d="M694.85714299 849.481143L229.37599999 384 694.85714299-81.48114299999997 772.388571-3.9497139999999717 384.585143 384 772.461714 771.876571z"  horiz-adv-x="1024" />

    
    <glyph glyph-name="arrow-down" unicode="&#60087;" d="M46.518857 566.85714299L512 101.37599998999997 977.481143 566.85714299 899.949714 644.388571 512 256.585143 124.123429 644.461714z"  horiz-adv-x="1024" />

    
    <glyph glyph-name="nav-close" unicode="&#59903;" d="M584.610909 360.72727299999997l320.930909 320.884363-49.338182 49.384728-320.930909-320.884364-320.884363 320.884364-49.384728-49.338182 320.884364-320.930909-320.884364-320.884364 49.338182-49.384727 320.930909 320.884363 320.884364-320.884363 49.384727 49.338182-320.884363 320.930909z"  horiz-adv-x="1024" />

    
    <glyph glyph-name="nav-search" unicode="&#59904;" d="M488.727273 11.636363999999958a395.636364 395.636364 0 1 0 0 791.272727 395.636364 395.636364 0 0 0 0-791.272727z m0 69.818181a325.818182 325.818182 0 1 1 0 651.636364 325.818182 325.818182 0 0 1 0-651.636364zM737.931636 108.73018200000001l49.338182 49.338182 164.584727-164.538182-49.338181-49.338182z"  horiz-adv-x="1024" />

    
    <glyph glyph-name="nav-im" unicode="&#59905;" d="M46.545455 616.727273v-465.454546a139.636364 139.636364 0 0 1 139.636363-139.636363h256v69.818181h-232.727273a93.090909 93.090909 0 0 0-93.090909 93.09091v418.90909a93.090909 93.090909 0 0 0 93.090909 93.09091h605.09091a93.090909 93.090909 0 0 0 93.090909-93.09091v-418.90909a93.090909 93.090909 0 0 0-93.090909-93.09091h-139.636364l-194.885818-143.96509 39.377454-58.833455L698.181818 11.636363999999958h139.636364a139.636364 139.636364 0 0 1 139.636363 139.636363V616.727273a139.636364 139.636364 0 0 1-139.636363 139.636363H186.181818a139.636364 139.636364 0 0 1-139.636363-139.636363z m721.454545-93.090909H558.545455v-69.818182h209.454545V523.636364z m-372.363636-34.909091a58.181818 58.181818 0 1 1-116.363637 0 58.181818 58.181818 0 0 1 116.363637 0z m263.540363-235.52C701.905455 286.72 721.454545 325.16654500000004 721.454545 337.45454500000005c1.024-1.303273-69.911273 22.388364-69.818181 23.272728 0-23.272727-69.818182-93.090909-162.909091-93.090909s-139.636364 46.545455-139.636364 46.545454L325.818182 244.36363600000004s46.545455-46.545455 162.909091-46.545454c76.613818 0 132.608 25.739636 170.449454 55.389091z"  horiz-adv-x="1024" />

    
    <glyph glyph-name="nav-sort" unicode="&#59906;" d="M884.363636 756.363636H93.090909v-69.818181h791.272727V756.363636zM93.090909 34.90909099999999h465.454546V104.72727299999997H93.090909v-69.818182z m0 325.818182h465.454546V430.545455H93.090909v-69.818182z m791.272727-93.090909L768 151.27272700000003V546.909091H698.181818v-512h46.545455l186.181818 186.181818-46.545455 46.545455z"  horiz-adv-x="1024" />

    
    <glyph glyph-name="nav-back" unicode="&#59907;" d="M295.005091 408.669091L698.181818 811.845818l49.338182-49.338182L369.105455 384l378.507636-378.507636L698.181818-43.84581800000001 270.336 384l24.669091 24.669091z"  horiz-adv-x="1024" />

    
    <glyph glyph-name="nav-filter" unicode="&#59908;" d="M407.272727 324.74763600000006L158.301091 698.181818H865.745455l-248.971637-373.434182V-34.90909099999999h69.818182v338.525091l290.304 435.432727a18.618182 18.618182 0 0 1-15.499636 28.951273H62.650182a18.618182 18.618182 0 0 1-15.499637-28.951273l290.304-435.432727V-34.90909099999999H558.545455v69.818182H407.272727v289.838545z"  horiz-adv-x="1024" />

    
    <glyph glyph-name="nav-share" unicode="&#59909;" d="M162.909091 34.90909099999999h698.181818V244.36363600000004H930.909091v-279.272727H93.090909v279.272727h69.818182zM886.039273 616.727273H674.909091a372.363636 372.363636 0 0 1-372.363636-372.363637v-116.363636H372.363636V244.36363600000004a302.545455 302.545455 0 0 0 302.545455 302.545455h202.472727l-174.731636-174.685091 49.338182-49.338182 263.354181 263.261091L752.034909 849.454545l-49.338182-49.338181L885.992727 616.727273z"  horiz-adv-x="1024" />

    
    <glyph glyph-name="sousuo-user" unicode="&#59878;" d="M1005.129143-57.41714300000001l-220.672 220.672a402.285714 402.285714 0 1 1-51.638857-51.785143l220.672-220.672 51.638857 51.785143zM146.285714 420.571429a329.142857 329.142857 0 1 0 658.285715 0 329.142857 329.142857 0 0 0-658.285715 0z"  horiz-adv-x="1024" />

    
    <glyph glyph-name="xiangce" unicode="&#59874;" d="M102.4 746.666667a38.4 38.4 0 0 1-38.4-38.4v-648.533334a38.4 38.4 0 0 1 38.4-38.4h819.2a38.4 38.4 0 0 1 38.4 38.4V708.266667a38.4 38.4 0 0 1-38.4 38.4H102.4z m0 64h819.2A102.4 102.4 0 0 0 1024 708.266667v-648.533334a102.4 102.4 0 0 0-102.4-102.4H102.4A102.4 102.4 0 0 0 0 59.733333000000016V708.266667A102.4 102.4 0 0 0 102.4 810.666667zM725.333333 448a64 64 0 1 1 0 128 64 64 0 0 1 0-128z m0-64a128 128 0 1 0 0 256 128 128 0 0 0 0-256zM56.234667 197.07733299999995a32 32 0 0 0-45.013334 45.482667l203.776 201.642667a83.2 83.2 0 0 0 117.034667 0l396.629333-392.490667 35.498667-35.456a32 32 0 0 0-45.226667-45.269333l-35.413333 35.370666-396.501333 392.362667a19.2 19.2 0 0 1-27.008 0L56.234667 197.12z"  horiz-adv-x="1024" />

    
    <glyph glyph-name="dianweizhao" unicode="&#59875;" d="M512 192a192 192 0 1 1 0 384 192 192 0 0 1 0-384z m0-64a256 256 0 1 0 0 512 256 256 0 0 0 0-512zM512 384m-42.666667 0a42.666667 42.666667 0 1 1 85.333334 0 42.666667 42.666667 0 1 1-85.333334 0ZM74.666667 213.33333300000004a32 32 0 0 0 32-32V42.66666699999996A64 64 0 0 1 170.666667-21.33333300000004h138.666666a32 32 0 1 0 0-64H149.333333A106.666667 106.666667 0 0 0 42.666667 21.33333300000004v160a32 32 0 0 0 32 32zM949.333333 213.33333300000004a32 32 0 0 1-32-32V42.66666699999996a64 64 0 0 0-64-64h-138.666666a32 32 0 1 1 0-64h160a106.666667 106.666667 0 0 1 106.666666 106.666666v160a32 32 0 0 1-32 32zM74.666667 554.666667a32 32 0 0 1 32 32V725.333333A64 64 0 0 0 170.666667 789.333333h138.666666a32 32 0 0 1 0 64H149.333333A106.666667 106.666667 0 0 1 42.666667 746.666667v-160c0-17.664 14.336-32 32-32zM949.333333 554.666667a32 32 0 0 0-32 32V725.333333A64 64 0 0 1 853.333333 789.333333h-138.666666a32 32 0 1 0 0 64h160A106.666667 106.666667 0 0 0 981.333333 746.666667v-160a32 32 0 0 0-32-32z"  horiz-adv-x="1024" />

    
    <glyph glyph-name="paizhao" unicode="&#59876;" d="M512 96a245.333333 245.333333 0 1 0 0 490.666667 245.333333 245.333333 0 0 0 0-490.666667z m0 64a181.333333 181.333333 0 1 1 0 362.666667 181.333333 181.333333 0 0 1 0-362.666667zM853.333333 597.333333m-42.666666 0a42.666667 42.666667 0 1 1 85.333333 0 42.666667 42.666667 0 1 1-85.333333 0ZM102.4-21.33333300000004h819.2a38.4 38.4 0 0 1 38.4 38.4V646.656a38.4 38.4 0 0 1-38.4 38.4H768a64 64 0 0 0-57.472 35.797333l-23.04 47.018667a38.4 38.4 0 0 1-34.474667 21.461333h-282.026666a38.4 38.4 0 0 1-34.432-21.461333l-23.082667-47.018667A64 64 0 0 0 256 685.013333H102.4a38.4 38.4 0 0 1-38.4-38.4V17.066667000000052a38.4 38.4 0 0 1 38.4-38.4z m0-64A102.4 102.4 0 0 0 0 17.066667000000052V646.656a102.4 102.4 0 0 0 102.4 102.4H256l23.082667 47.018667A102.4 102.4 0 0 0 370.986667 853.333333h282.026666a102.4 102.4 0 0 0 91.904-57.258666L768 749.056h153.6a102.4 102.4 0 0 0 102.4-102.4V17.066667000000052a102.4 102.4 0 0 0-102.4-102.4H102.4z"  horiz-adv-x="1024" />

    
    <glyph glyph-name="paixu" unicode="&#59844;" d="M749.57264018 270.04090177a23.34175632 23.34175632 0 0 1-33.04202808 0l-82.42939599-82.429396V635.8557175000001a22.9140278 22.9140278 0 0 1-45.79750355 0v-503.69615898c0-9.76137585 6.11040741-18.02570186 14.69552982-21.32532188l0.56521269-0.18331222a22.54740335 22.54740335 0 0 1 12.81657955-0.7485249c4.39949333 0.87073306 8.64622649 2.58164713 12.05277861 5.98819925l121.12355093 121.13882695a23.32648029 23.32648029 0 0 1 0.01527602 33.01147606zM420.9854816 657.16576336c-0.18331222 0.07638009-0.35134842 0.0916561-0.53466066 0.1680362a22.27243502 22.27243502 0 0 1-11.54867 1.00821722l-1.28318556-0.2444163c-4.39949333-0.87073306-8.64622649-2.56637112-12.05277861-5.98819925l-121.12355093-121.13882696a23.35703233 23.35703233 0 1 1 33.04202808-33.02675205l82.42939599 82.444672v-448.24421172a22.89875178 22.89875178 0 1 1 45.79750356 0V635.8557175000001a22.9140278 22.9140278 0 0 1-14.72608187 21.31004586z"  horiz-adv-x="1024" />

    
    <glyph glyph-name="dianhua" unicode="&#59775;" d="M343.770822 243.78700600000002a165.328139 165.328139 0 0 0-2.094529 2.117802l2.094529-2.117802z m2.187619-2.164346l-2.164347 2.164346 2.164347-2.164346z m458.09672 2.699615c-65.046755 65.00021-147.129011 15.499513-163.582699-0.954175l-16.453688-16.453687c-49.384334-49.337789-98.559216-66.024202-163.629243-0.954174l-41.867304 41.844031-60.927515 60.88097c-65.838022 65.768204-49.361062 115.105993 0 164.42051l16.453687 16.453688c16.453687 16.453687 65.838022 98.698851 0 164.490328l-82.291709 82.221891c-98.745396 98.698851-197.46752 0-197.46752 0L61.358523 723.387555c-148.106458-148.013368 0-460.517064 148.106458-608.553705l32.930647-32.907374 4.421783-4.398511c146.38429-146.2912 456.374552-291.628226 604.48101-143.591585l32.930647 32.907375s98.722124 98.652306 1.140355 196.18753c-81.314262 81.29099-16.244234 16.29078-81.314262 81.29099z m31.371386-228.745817l-32.907374-32.884102c-65.838022-65.768204-294.886382-67.141284-506.317427 144.173398a20.060931 20.060931 0 0 0-5.189777 3.677062l0.744721 0.721449s-20.666017 20.68929-32.907374 32.884102c-213.94448 213.85139-213.94448 444.109922-148.106459 509.901399l32.907375 32.907374c49.384334 49.314517 98.768669 0 98.768669 0l82.291709-82.245164s32.907375-32.884102 0-65.791477c-32.930647-32.907375-148.129731-148.013368-16.453687-279.619593l37.748063-37.701519 65.070028-65.023482c130.093511-130.046966 245.339139-14.940972 278.246514 17.966402 32.907375 32.930647 65.442389 0.418906 65.442388 0.418906 32.511741-32.535014 81.314262-81.267717 81.314263-81.267717s48.732703-48.755976-0.651632-98.117038zM567.606132 619.080021c51.874496 1.442898 98.396308-15.685693 131.024413-48.290525 32.628104-32.628104 49.779968-79.103371 48.313797-130.931322-0.558541-19.4093 14.754792-35.70008 34.187365-36.398256s35.630262 14.452249 36.188803 33.884821c2.024711 71.423432-22.551093 136.423642-69.119451 182.968727-46.591629 46.568357-111.615112 71.097616-183.108361 69.096177a34.838996 34.838996 0 0 1-33.908094-36.16553 35.467354 35.467354 0 0 1 36.421528-34.164092z m298.656534 119.248506c-78.987008 78.91719-187.041421 118.015061-304.358307 110.148942a36.398256 36.398256 0 0 1-33.884821-39.121143 37.096432 37.096432 0 0 1 39.400414-34.187365c95.719966 6.423222 183.45745-25.017983 247.061307-88.598568 63.580585-63.557313 95.068335-151.271524 88.645114-246.898399a37.07316 37.07316 0 0 1 34.210636-39.353869 36.421528 36.421528 0 0 1 39.144416 33.861549c7.866119 117.200522-31.278297 225.20839-110.218759 304.148853z"  horiz-adv-x="1024" />

    
    <glyph glyph-name="liaotian" unicode="&#59776;" d="M814.545455 872.727273H209.454545c-209.454545 0-209.454545-209.477818-209.454545-209.477818v-418.955637s0-209.501091 209.454545-209.501091h221.09091a34.909091 34.909091 0 0 1 0 69.841455H209.454545s-139.636364 0-139.636363 139.659636V663.249455C69.818182 802.909091 209.454545 802.909091 209.454545 802.909091h605.09091s139.636364 0 139.636363-139.659636v-418.955637c0-139.659636-139.636364-139.659636-139.636363-139.659636h-128c-10.309818 0-19.502545-4.561455-25.856-11.706182l-180.64291-132.305455c-15.522909-11.357091-19.316364-33.768727-8.424727-49.989818 10.891636-16.267636 32.279273-20.200727 47.802182-8.843636l181.550545 133.003636H814.545455s209.454545 0 209.454545 209.501091V663.249455S1024 872.727273 814.545455 872.727273z m-58.181819-372.410182a34.909091 34.909091 0 0 1 0 69.818182h-139.636363a34.909091 34.909091 0 0 1 0-69.818182h139.636363z m-384 34.909091a58.181818 58.181818 0 1 1-116.363636 0 58.181818 58.181818 0 0 1 116.363636 0z m116.363637-314.251637c76.590545 0 132.631273 25.716364 170.472727 55.412364C701.858909 309.82981800000005 721.454545 348.322909 721.454545 360.634182v11.636363a34.792727 34.792727 0 1 1-67.67709 11.636364L651.636364 383.93018199999995c0-23.272727-69.818182-93.114182-162.909091-93.114182s-139.636364 46.568727-139.636364 46.568727h-11.636364a34.909091 34.909091 0 0 1-34.90909-34.932363c0-15.406545 10.053818-28.369455 23.924363-32.977455l-0.651636-1.954909s46.545455-46.545455 162.909091-46.545455z"  horiz-adv-x="1024" />

    
    <glyph glyph-name="work-home-un" unicode="&#59765;" d="M830.7500002929687 515.2499997070313L586.9999997070313 759.0000002929687c-18.412499707031248 18.412499707031248-37.50000029296875 37.50000029296875-74.99999970703125 37.4999994140625s-55.9125-18.412499707031248-74.99999970703125-37.4999994140625L193.24999970703124 515.2499997070313c-18.74999970703125-18.74999970703125-56.25-56.25-56.25-112.5v-356.24999970703124s0-74.99999970703125 75.0000005859375-74.99999970703125h168.75c37.50000029296875 0 37.50000029296875 37.50000029296875 37.4999994140625 37.4999994140625V271.5s0 56.25 56.25 56.25h75.0000005859375c56.25 0 56.25-56.25 56.25-56.25v-178.12500029296874a28.125 28.125 0 0 1 56.25 0V102.75v168.75c0 112.5-112.5 112.5-112.5 112.5h-75.0000005859375c-112.5 0-112.5-112.5-112.5-112.5v-243.74999970703126H193.24999970703124V421.50000029296876c0 18.74999970703125 18.74999970703125 37.50000029296875 18.750000585937503 37.4999994140625L474.49999970703124 721.5c25.01250029296875 24.99374970703125 49.98750029296875 24.99374970703125 75.0000005859375 0l-0.037500292968749994 0.037500292968749994L811.9999997070313 458.9999997070313s18.74999970703125-18.74999970703125 18.750000585937503-37.4999994140625v-375.00000029296876c0-18.74999970703125-18.74999970703125-18.74999970703125-18.750000585937503-18.74999970703125h-178.1249994140625a28.125 28.125 0 0 1 0-56.25H811.9999997070313c74.99999970703125 0 74.99999970703125 74.99999970703125 75.0000005859375 74.99999970703125V402.74999970703124c0 56.25-37.50000029296875 93.75000029296875-56.25 112.5z"  horiz-adv-x="1024" />

    
    <glyph glyph-name="work-home-pr" unicode="&#59766;" d="M136.99999970703124 402.74999970703124v-356.24999970703124s0-74.99999970703125 75.0000005859375-74.99999970703125h168.75c37.50000029296875 0 37.50000029296875 37.50000029296875 37.4999994140625 37.4999994140625V271.5s0 56.25 56.25 56.25h75.0000005859375c56.25 0 56.25-56.25 56.25-56.25v-262.50000029296876s0-37.50000029296875 37.4999994140625-37.4999994140625h168.75c74.99999970703125 0 74.99999970703125 74.99999970703125 75.0000005859375 74.99999970703125V402.74999970703124c0 56.25-37.50000029296875 93.75000029296875-56.25 112.5L586.9999997070313 759.0000002929687c-18.412499707031248 18.412499707031248-37.50000029296875 37.50000029296875-74.99999970703125 37.4999994140625s-55.9125-18.412499707031248-74.99999970703125-37.4999994140625L193.24999970703124 515.2499997070313c-18.74999970703125-18.74999970703125-56.25-56.25-56.25-112.5z"  horiz-adv-x="1024" />

    
    <glyph glyph-name="fenxiang" unicode="&#59751;" d="M348.26480375000006 122.11365750000004a32.7170484375 32.7170484375 0 0 1 32.7170484375 32.7170484375v119.96251218750001c0 174.49092656250002 174.49092656250002 348.98185218749995 348.98185218749995 348.98185218749995h148.57902375l-117.32333625-117.67231875a33.5240690625 33.5240690625 0 0 1 0-47.3306634375 33.349577812499994 33.349577812499994 0 0 1 47.221606875 0l173.0949984375 173.5966603125c6.6306553125 6.652466250000001 9.815114999999999 15.3988246875 9.6842465625 24.1233703125 0.1308684375 8.7245465625-3.0754021875 17.4709040625-9.6842465625 24.101559375L808.44099875 854.1903384375a33.349577812499994 33.349577812499994 0 0 1-47.221606875 0 33.5458809375 33.5458809375 0 0 1 0-47.3524753125l117.32333625-117.650506875H729.9637043749999c-218.11365750000002 0-414.41595-196.30229156250002-414.4159490625-414.41595v-119.96251125a32.7170484375 32.7170484375 0 0 1 32.7170484375-32.695237500000005z m610.7182415625 130.8681946875a32.7170484375 32.7170484375 0 0 1-32.7170484375-32.7170484375v-119.96251218750001a130.8681946875 130.8681946875 0 0 0-130.8681946875-130.8681946875H228.3022915625a130.8681946875 130.8681946875 0 0 0-130.8681946875 130.8681946875v119.96251218750001a32.7170484375 32.7170484375 0 0 1-65.434096875 0v-119.96251218750001a196.30229156250002 196.30229156250002 0 0 1 196.30229156250002-196.30229156250002h567.095510625a196.30229156250002 196.30229156250002 0 0 1 196.30229156250002 196.30229156250002v119.96251218750001a32.7170484375 32.7170484375 0 0 1-32.7170484375 32.7170484375z"  horiz-adv-x="1024" />

    
    <glyph glyph-name="xiazai" unicode="&#59742;" d="M552.811404 82.410419a52.507435 52.507435 0 0 1 74.25864 0l316.921752 316.908625a52.507435 52.507435 0 0 1-74.25864 74.25864l-226.700852-226.674597V843.650087a52.428674 52.428674 0 0 1-52.520562 52.349913c-28.997231 0-52.507435-23.431443-52.507435-52.349913v-597.941544L310.148292 473.577684a52.507435 52.507435 0 1 1-74.245513-74.245513l316.908625-316.921752zM1050.148703 55.776023h-0.66947c-3.255461 25.873039-25.085427 45.944006-51.837965 45.944006s-48.582504-20.070967-51.837966-45.944006H945.133832s0-78.761153-78.761152-78.761153H315.044611c-78.761153 0-78.761153 78.761153-78.761153 78.761153h-0.656343c-3.268588 25.873039-25.098554 45.944006-51.851092 45.944006s-48.582504-20.070967-51.851092-45.944006H131.268588s0-1.758999 0.170649-4.870065c-0.013127-0.577582-0.170649-1.115783-0.170649-1.693364 0-3.964311 0.525074-7.797354 1.352066-11.499129 5.552661-46.285304 34.234848-165.713465 182.423957-165.713465h551.328069c138.974054 0 172.985745 112.982874 181.203158 161.762281A51.982361 51.982361 0 0 1 1050.148703 49.212594c0 0.892626-0.223157 1.732745-0.262537 2.612244 0.196903 2.50723 0.262537 3.951184 0.262537 3.951185z"  horiz-adv-x="1181" />

    
    <glyph glyph-name="shuaxin" unicode="&#59743;" d="M1166.690462 421.100308a52.512821 52.512821 0 0 1-74.253129 0l-99.433025-99.446154c18.484513 147.561026-28.632615 301.764923-141.929026 415.074461-194.822564 194.822564-510.687179 194.822564-705.509744 0-194.822564-194.822564-194.822564-510.674051 0-705.509743 134.971077-134.957949 328.021333-176.377436 498.688-124.310975l-0.078769 0.249436a52.040205 52.040205 0 0 1 21.228308 12.668718 52.512821 52.512821 0 0 1 0 74.253128c-13.981538 13.994667-33.870769 18.208821-51.659487 13.101949l-0.065641 0.236308c-134.787282-41.183179-287.284513-8.507077-393.872411 98.107077-153.810051 153.796923-153.810051 403.167179 0 556.977231 153.796923 153.796923 403.154051 153.796923 556.977231 0 91.083487-91.083487 128.013128-215.630769 111.261539-333.994667l-92.698257 92.672a52.512821 52.512821 0 0 1-74.226872-74.253128l185.672206-185.672205a52.512821 52.512821 0 0 1 74.253128 0l185.645949 185.672205a52.381538 52.381538 0 0 1 0 74.174359z"  horiz-adv-x="1181" />

    
    <glyph glyph-name="caution" unicode="&#59741;" d="M512 896C229.248 896 0 666.752 0 384c0-282.784 229.248-512 512-512s512 229.216 512 512c0 282.752-229.248 512-512 512z m0-800a64 64 0 1 0 0.032 128.032A64 64 0 0 0 512 96z m64 288a64 64 0 0 0-128 0V640a64 64 0 0 0 128 0v-256z"  horiz-adv-x="1024" />

    
    <glyph glyph-name="yiwen" unicode="&#59722;" d="M512 896C229.233778 896 0 666.766222 0 384s229.233778-512 512-512 512 229.233778 512 512S794.766222 896 512 896z m0-967.111111C260.636444-71.11111100000005 56.888889 132.63644399999998 56.888889 384S260.636444 839.111111 512 839.111111s455.111111-203.747556 455.111111-455.111111-203.747556-455.111111-455.111111-455.111111z m-13.056 252.359111c-26.624 0-48.810667-22.186667-48.810667-52.508444s22.186667-51.029333 48.810667-51.029334c27.363556 0 49.550222 20.707556 49.550222 51.029334s-22.186667 52.508444-49.550222 52.508444z m9.614222 469.646222c-59.875556 0-107.235556-28.842667-141.255111-68.067555l38.456889-35.470223c25.884444 29.553778 58.453333 47.331556 95.402667 47.331556 52.508444 0 79.872-35.498667 79.872-79.900444 0-88.007111-130.901333-135.338667-113.891556-264.021334h59.904c-13.312 116.110222 119.808 159.744 119.808 268.458667 0 80.64-54.727111 131.669333-138.296889 131.669333z"  horiz-adv-x="1024" />

    
    <glyph glyph-name="work-form-pr" unicode="&#59715;" d="M868.25 777.75h-712.5c0 0 0 0 0 0-41.422 0-75-33.578-75-75v-637.5c0-41.422 33.578-75 75-75 0 0 0 0 0 0h712.5c0 0 0 0 0 0 41.421 0 75 33.578 75 75 0 0 0 0 0 0v637.5c0 41.422-33.578 75-75 75 0 0 0 0 0 0zM324.5 168.375c0-15.532-12.593-28.125-28.125-28.125s-28.125 12.593-28.125 28.125v112.5c0 15.532 12.593 28.125 28.125 28.125s28.125-12.593 28.125-28.125v-112.5zM530.75 168.375c0-15.532-12.593-28.125-28.125-28.125s-28.125 12.593-28.125 28.125v412.5c0 15.532 12.593 28.125 28.125 28.125s28.125-12.593 28.125-28.125v-412.5zM737 168.375c0-15.532-12.593-28.125-28.125-28.125s-28.125 12.593-28.125 28.125v225c0 15.533 12.593 28.125 28.125 28.125s28.125-12.593 28.125-28.125v-225z"  horiz-adv-x="1024" />

    
    </font>
</defs>
</svg>
