<?xml version="1.0" encoding="iso-8859-1"?>
<!-- Generator: Adobe Illustrator 19.0.0, SVG Export Plug-In . SVG Version: 6.00 Build 0)  -->
<svg version="1.1" id="&#x56FE;&#x5C42;_1" xmlns="http://www.w3.org/2000/svg" xmlns:xlink="http://www.w3.org/1999/xlink" x="0px"
	 y="0px" viewBox="0 0 3000 150" style="enable-background:new 0 0 3000 150;" xml:space="preserve">
<path id="XMLID_398_" d="M-0.5,60.023c0,0,109.071,89.45,321.048,20.957S618.973,15.52,731.96,45.3s185.667,65.212,280.99,57.933
	s108.497-14.545,165.846-42.339C1236.144,33.099,1374-18.505,1500,60.246V168H0L-0.5,60.023z" fill="rgba(255,255,255,0.8)"/>
<path id="XMLID_398_1" d="M-0.5,60.023c0,0,109.071,89.45,321.048,20.957S618.973,15.52,731.96,45.3s185.667,65.212,280.99,57.933
	s108.497-14.545,165.846-42.339C1236.144,33.099,1374-18.505,1500,60.246V168H0L-0.5,60.023z" fill="rgba(255,255,255,0.8)" transform="translate(1500 0)"/>
</svg>
