<?xml version="1.0" encoding="iso-8859-1"?>
<!-- Generator: Adobe Illustrator 19.0.0, SVG Export Plug-In . SVG Version: 6.00 Build 0)  -->
<svg version="1.1" id="&#x56FE;&#x5C42;_1" xmlns="http://www.w3.org/2000/svg" xmlns:xlink="http://www.w3.org/1999/xlink" x="0px"
	 y="0px" viewBox="0 0 3000 150" style="enable-background:new 0 0 3000 150;" xml:space="preserve">
<path id="XMLID_15_" d="M1500.5,38.578C1422.458,60.972,1384.903,89.76,1318,100c-98,15-154-3-250-45s-208-68-361,4
	s-238.145,49.333-321,13C256.977,15.421,159.5,13.861,141.639,13.998c-0.402,0.003-0.801,0.041-1.203,0.04
	C79.5,13.861,35.862,28.293,0,38.578V163h1500.5V38.578z" fill="rgba(255,255,255,0.8)"/>
<path id="XMLID_15_1" d="M1500.5,38.578C1422.458,60.972,1384.903,89.76,1318,100c-98,15-154-3-250-45s-208-68-361,4
	s-238.145,49.333-321,13C256.977,15.421,159.5,13.861,141.639,13.998c-0.402,0.003-0.801,0.041-1.203,0.04
	C79.5,13.861,35.862,28.293,0,38.578V163h1500.5V38.578z" fill="rgba(255,255,255,0.8)" transform="translate(1500 0)"/>
</svg>
