<?xml version="1.0" encoding="utf-8"?>
<svg version="1.1" id="图层_1" xmlns="http://www.w3.org/2000/svg"  x="0px" y="0px"
	 width="44px" height="44px" viewBox="0 0 44 44" enable-background="new 0 0 44 44" xml:space="preserve">
<g>
	<path fill="#929292" d="M0,22c0,12.131,9.869,22,22,22s22-9.869,22-22S34.131,0,22,0C9.869,0,0,9.869,0,22z M42,22
		c0,11.028-8.972,20-20,20C10.972,42,2,33.028,2,22S10.972,2,22,2C33.028,2,42,10.972,42,22z"/>
	<path fill="#929292" d="M21,14.082v13.12l-4.912-4.643c-0.443-0.423-1.181-0.423-1.625,0c-0.443,0.423-0.453,1.107-0.01,1.529
		l6.805,6.489c0.443,0.423,1.159,0.423,1.602,0l6.808-6.489c0.222-0.211,0.332-0.488,0.332-0.765c0-0.277-0.111-0.553-0.333-0.765
		c-0.443-0.423-1.14-0.423-1.583,0L23,27.202v-13.12C23,13.484,22.627,13,22,13C21.373,13,21,13.484,21,14.082z"/>
</g>
</svg>
