<?xml version="1.0" standalone="no"?><!DOCTYPE svg PUBLIC "-//W3C//DTD SVG 1.1//EN" "http://www.w3.org/Graphics/SVG/1.1/DTD/svg11.dtd"><svg t="1586832694658" class="icon" viewBox="0 0 1024 1024" version="1.1" xmlns="http://www.w3.org/2000/svg" p-id="7143" xmlns:xlink="http://www.w3.org/1999/xlink" width="200" height="200"><defs><style type="text/css"></style></defs><path d="M525.952341 519.509333m-498.119111 0a498.119111 498.119111 0 1 0 996.238222 0 498.119111 498.119111 0 1 0-996.238222 0Z" fill="#CEE9F4" p-id="7144"></path><path d="M498.190564 43.349333A461.141333 461.141333 0 1 1 37.04923 504.490667 461.653333 461.653333 0 0 1 498.190564 43.349333m0-36.977777a498.119111 498.119111 0 1 0 498.062222 498.119111A498.119111 498.119111 0 0 0 498.190564 6.371556z" p-id="7145"></path><path d="M712.547897 452.608a30.606222 30.606222 0 0 0-27.420445-17.066667h-115.712l19.626667-177.607111a30.776889 30.776889 0 0 0-55.125333-21.959111l-150.755556 199.111111-77.539555 102.4a30.776889 30.776889 0 0 0 24.405333 49.493334h98.247111V773.688889a30.663111 30.663111 0 0 0 55.352889 18.033778l111.957333-151.893334 114.346667-155.136a30.833778 30.833778 0 0 0 2.616889-32.085333z" fill="#F7D134" p-id="7146"></path><path d="M572.658119 621.283556L540.515897 597.731556l-88.746667 120.604444v-164.977778a27.932444 27.932444 0 0 0-27.932444-27.932444H334.862564L396.47323 443.733333l-31.630222-23.893333-75.832889 100.465778a27.534222 27.534222 0 0 0-2.730667 29.184 27.932444 27.932444 0 0 0 25.031112 15.530666h100.920888v189.269334a27.818667 27.818667 0 0 0 50.119112 16.668444zM691.100786 434.744889a27.818667 27.818667 0 0 0-24.917334-15.246222h-118.897777L567.310564 238.933333a27.989333 27.989333 0 0 0-50.062223-19.968L405.68923 366.136889l31.630222 23.950222L523.44923 276.707556l-17.066666 151.381333a27.875556 27.875556 0 0 0 27.761777 30.947555H642.915897L580.850119 543.288889l31.971556 23.552 75.889777-102.968889a28.046222 28.046222 0 0 0 2.389334-29.127111z" p-id="7147"></path></svg>