<?xml version="1.0" standalone="no"?><!DOCTYPE svg PUBLIC "-//W3C//DTD SVG 1.1//EN" "http://www.w3.org/Graphics/SVG/1.1/DTD/svg11.dtd"><svg t="1586832669365" class="icon" viewBox="0 0 1024 1024" version="1.1" xmlns="http://www.w3.org/2000/svg" p-id="6256" xmlns:xlink="http://www.w3.org/1999/xlink" width="200" height="200"><defs><style type="text/css"></style></defs><path d="M512 249.11a12 12 0 0 1-12-12V117a12 12 0 0 1 24 0v120.11a12 12 0 0 1-12 12zM291.46 340.46a12 12 0 0 1-8.49-3.52L198 252a12 12 0 0 1 17-17l84.94 85a12 12 0 0 1-8.48 20.49zM200.11 561H80a12 12 0 0 1 0-24h120.11a12 12 0 0 1 0 24zM944 561H823.89a12 12 0 1 1 0-24H944a12 12 0 0 1 0 24zM732.54 340.46a12 12 0 0 1-8.48-20.46L809 235a12 12 0 0 1 17 17l-85 84.94a12 12 0 0 1-8.46 3.52z" fill="" p-id="6257"></path><path d="M791.11 549C771.83 434.63 672.35 347.5 552.5 347.5S333.17 434.63 313.89 549z" fill="#F7D134" p-id="6258"></path><path d="M754 567H270a16 16 0 0 1-16-15.87v-0.7V549a258 258 0 0 1 516 0v2.13A16 16 0 0 1 754 567z m-467.57-32h451.14C730.32 416.88 631.92 323 512 323s-218.32 93.88-225.57 212z" fill="" p-id="6259"></path><path d="M230 634h622v87H230zM230 777.5h622v87H230z" fill="#CEE9F4" p-id="6260"></path><path d="M818 705H196a12 12 0 0 1-12-12v-87a12 12 0 0 1 12-12h622a12 12 0 0 1 12 12v87a12 12 0 0 1-12 12z m-610-24h598v-63H208zM818 848.5H196a12 12 0 0 1-12-12v-87a12 12 0 0 1 12-12h622a12 12 0 0 1 12 12v87a12 12 0 0 1-12 12z m-610-24h598v-63H208z" fill="" p-id="6261"></path></svg>