<?xml version="1.0" standalone="no"?><!DOCTYPE svg PUBLIC "-//W3C//DTD SVG 1.1//EN" "http://www.w3.org/Graphics/SVG/1.1/DTD/svg11.dtd"><svg t="1586832677171" class="icon" viewBox="0 0 1024 1024" version="1.1" xmlns="http://www.w3.org/2000/svg" p-id="6631" xmlns:xlink="http://www.w3.org/1999/xlink" width="200" height="200"><defs><style type="text/css"></style></defs><path d="M758.76 534.47m-207.24 0a207.24 207.24 0 1 0 414.48 0 207.24 207.24 0 1 0-414.48 0Z" fill="#CEE9F4" p-id="6632"></path><path d="M344.76 534.47m-207.24 0a207.24 207.24 0 1 0 414.48 0 207.24 207.24 0 1 0-414.48 0Z" fill="#CEE9F4" p-id="6633"></path><path d="M718.76 737.71a223.24 223.24 0 1 1 157.85-65.38 221.77 221.77 0 0 1-157.85 65.38z m0-414.48c-105.45 0-191.24 85.79-191.24 191.24s85.79 191.24 191.24 191.24S910 619.92 910 514.47s-85.79-191.24-191.24-191.24z" fill="" p-id="6634"></path><path d="M304.76 737.71a223.24 223.24 0 1 1 157.85-65.38 221.77 221.77 0 0 1-157.85 65.38z m0-414.48c-105.45 0-191.24 85.79-191.24 191.24s85.79 191.24 191.24 191.24S496 619.92 496 514.47s-85.79-191.24-191.24-191.24z" fill="" p-id="6635"></path><path d="M116 214m-18 0a18 18 0 1 0 36 0 18 18 0 1 0-36 0Z" fill="" p-id="6636"></path><path d="M512 214m-18 0a18 18 0 1 0 36 0 18 18 0 1 0-36 0Z" fill="" p-id="6637"></path><path d="M908 214m-18 0a18 18 0 1 0 36 0 18 18 0 1 0-36 0Z" fill="" p-id="6638"></path><path d="M116 815m-18 0a18 18 0 1 0 36 0 18 18 0 1 0-36 0Z" fill="" p-id="6639"></path><path d="M512 815m-18 0a18 18 0 1 0 36 0 18 18 0 1 0-36 0Z" fill="" p-id="6640"></path><path d="M908 815m-18 0a18 18 0 1 0 36 0 18 18 0 1 0-36 0Z" fill="" p-id="6641"></path></svg>